<?xml version="1.0" encoding="iso-8859-1"?>
<!-- Generator: Adobe Illustrator 19.0.0, SVG Export Plug-In . SVG Version: 6.00 Build 0)  -->
<svg version="1.1" id="Capa_1" xmlns="http://www.w3.org/2000/svg" xmlns:xlink="http://www.w3.org/1999/xlink" x="0px" y="0px"
	 viewBox="0 0 512.001 512.001" style="enable-background:new 0 0 512.001 512.001;" xml:space="preserve">
<path style="fill:#0E61C4;" d="M475.899,482.482H36.102c-13.031,0-24.7-6.737-31.215-18.022c-6.516-11.285-6.516-24.76,0-36.044
	L224.785,47.541C231.3,36.256,242.969,29.519,256,29.519c13.031,0,24.7,6.737,31.215,18.022l219.898,380.874
	c6.516,11.285,6.516,24.76,0,36.044C500.598,475.745,488.929,482.482,475.899,482.482z"/>
<path style="fill:#0C4EAD;" d="M507.113,428.415L287.215,47.541c-6.515-11.285-18.184-18.022-31.215-18.022v452.963h219.898
	c13.031,0,24.7-6.737,31.215-18.022C513.629,453.175,513.629,439.7,507.113,428.415z"/>
<path style="fill:#FDE882;" d="M250.797,62.56L30.899,443.434c-1.509,2.613-0.647,4.886,0,6.007
	c0.647,1.122,2.186,3.004,5.202,3.004h439.796c3.018,0,4.556-1.881,5.202-3.004c0.647-1.121,1.509-3.394,0-6.007L261.203,62.56
	c-1.509-2.613-3.907-3.004-5.202-3.004S252.306,59.946,250.797,62.56L250.797,62.56z"/>
<path style="fill:#FDDA40;" d="M481.101,443.434L261.203,62.56c-1.509-2.613-3.907-3.004-5.202-3.004v392.889h219.898
	c3.018,0,4.556-1.881,5.202-3.004C481.748,448.32,482.61,446.047,481.101,443.434z"/>
<g>
	<rect x="240.987" y="166.095" style="fill:#0E61C4;" width="30.037" height="160.197"/>
	<circle style="fill:#0E61C4;" cx="256.006" cy="376.354" r="20.025"/>
</g>
<g>
	<rect x="256.006" y="166.095" style="fill:#0C4EAD;" width="15.019" height="160.197"/>
	<path style="fill:#0C4EAD;" d="M256,356.327v40.049c11.06,0,20.025-8.965,20.025-20.025
		C276.025,365.292,267.059,356.327,256,356.327z"/>
</g>
<g>
</g>
<g>
</g>
<g>
</g>
<g>
</g>
<g>
</g>
<g>
</g>
<g>
</g>
<g>
</g>
<g>
</g>
<g>
</g>
<g>
</g>
<g>
</g>
<g>
</g>
<g>
</g>
<g>
</g>
</svg>
