<svg id="svg" version="1.1" xmlns="http://www.w3.org/2000/svg" xmlns:xlink="http://www.w3.org/1999/xlink" width="400" height="447.52475247524757" viewBox="0, 0, 400,447.52475247524757"><g id="svgg"><path id="path0" d="M197.300 22.676 C 197.685 22.776,198.315 22.776,198.700 22.676 C 199.085 22.575,198.770 22.493,198.000 22.493 C 197.230 22.493,196.915 22.575,197.300 22.676 M68.493 70.400 C 68.493 71.170,68.575 71.485,68.676 71.100 C 68.776 70.715,68.776 70.085,68.676 69.700 C 68.575 69.315,68.493 69.630,68.493 70.400 M327.301 72.200 C 327.305 73.080,327.387 73.393,327.483 72.895 C 327.579 72.398,327.575 71.678,327.475 71.295 C 327.375 70.913,327.296 71.320,327.301 72.200 M207.000 72.717 C 206.560 72.810,206.020 73.029,205.800 73.204 C 204.988 73.850,197.555 74.473,189.000 74.611 C 166.161 74.981,157.278 77.654,147.237 87.181 C 144.740 89.550,144.817 90.796,147.363 89.223 C 148.146 88.739,148.972 88.459,149.199 88.600 C 149.800 88.971,149.282 89.600,148.376 89.600 C 147.949 89.600,147.600 89.799,147.600 90.042 C 147.600 90.286,147.164 90.828,146.630 91.248 C 146.097 91.667,145.019 92.885,144.234 93.953 C 142.919 95.745,142.645 95.916,140.704 96.153 C 139.547 96.295,137.520 96.670,136.200 96.987 C 134.880 97.304,133.289 97.669,132.664 97.798 C 131.785 97.980,131.592 98.188,131.811 98.717 C 131.968 99.093,132.239 101.560,132.415 104.200 C 132.873 111.077,133.697 114.271,135.262 115.238 C 135.545 115.413,135.632 115.701,135.454 115.878 C 135.156 116.176,134.503 115.531,132.700 113.158 C 132.315 112.652,132.000 111.905,132.000 111.499 C 132.000 110.382,130.855 108.400,130.210 108.400 C 128.446 108.400,116.417 118.568,116.403 120.071 C 116.401 120.221,116.175 120.586,115.900 120.882 C 111.355 125.785,107.227 138.044,107.205 146.700 C 107.200 148.975,107.779 149.519,108.194 147.628 C 108.336 146.983,108.710 146.241,109.026 145.979 C 109.342 145.717,109.600 145.298,109.600 145.048 C 109.600 143.739,113.585 138.617,116.704 135.917 C 125.185 128.575,153.515 126.939,176.400 132.468 C 178.145 132.890,180.791 133.444,186.600 134.603 C 188.140 134.910,189.922 135.286,190.559 135.439 C 191.383 135.636,191.637 135.583,191.436 135.258 C 191.280 135.006,190.803 134.800,190.376 134.800 C 189.949 134.800,189.600 134.625,189.600 134.411 C 189.600 134.031,183.973 131.216,182.000 130.610 C 181.450 130.440,180.820 130.166,180.600 130.001 C 179.250 128.984,165.765 124.995,158.200 123.375 C 156.440 122.999,153.560 122.303,151.800 121.829 L 148.600 120.967 148.655 119.384 C 148.686 118.513,149.022 116.540,149.402 115.000 C 150.228 111.656,150.663 101.630,150.050 100.058 C 149.823 99.476,149.446 98.248,149.211 97.328 C 148.853 95.926,148.561 95.583,147.392 95.197 C 145.753 94.656,145.614 94.184,146.993 93.838 C 148.227 93.528,150.800 91.312,150.800 90.559 C 150.800 90.251,150.980 90.000,151.200 90.000 C 151.766 90.000,151.697 91.343,151.100 91.941 C 150.193 92.849,150.566 98.147,151.643 99.660 L 152.562 100.950 153.063 99.722 C 153.957 97.530,161.501 92.421,163.868 92.403 C 164.125 92.402,164.845 92.152,165.468 91.849 C 167.213 90.999,171.698 89.600,172.676 89.600 C 173.158 89.600,173.651 89.440,173.772 89.245 C 173.893 89.050,174.668 88.765,175.496 88.612 C 176.323 88.459,177.540 88.092,178.200 87.797 C 178.860 87.501,179.985 87.142,180.700 86.998 C 187.078 85.715,168.917 85.540,160.400 86.803 C 158.239 87.123,156.131 87.742,154.616 88.502 C 153.010 89.306,152.181 89.542,152.074 89.222 C 151.987 88.962,151.440 88.560,150.858 88.331 C 149.870 87.941,149.853 87.893,150.600 87.613 C 156.948 85.229,163.234 84.091,177.200 82.795 C 189.072 81.693,191.983 81.240,197.000 79.715 C 203.606 77.708,212.356 71.584,207.000 72.717 M335.301 73.800 C 335.305 74.680,335.387 74.993,335.483 74.495 C 335.579 73.998,335.575 73.278,335.475 72.895 C 335.375 72.513,335.296 72.920,335.301 73.800 M209.239 75.981 C 208.271 76.364,207.281 76.942,207.039 77.264 C 206.798 77.586,206.240 78.005,205.800 78.195 C 205.022 78.531,205.025 78.545,205.879 78.695 C 206.363 78.781,207.116 78.659,207.553 78.425 C 208.426 77.958,212.707 77.930,214.600 78.380 C 215.722 78.646,215.669 78.684,213.800 78.958 C 209.113 79.645,204.772 81.929,201.100 85.641 C 197.192 89.591,197.127 89.435,202.700 89.449 C 207.269 89.460,212.407 90.882,215.034 92.862 C 216.759 94.162,225.301 98.441,228.200 99.458 C 232.043 100.806,241.789 100.097,246.289 98.141 C 249.859 96.589,250.645 96.093,252.613 94.147 C 255.480 91.312,255.936 88.236,253.343 89.222 C 248.910 90.907,239.862 89.039,229.600 84.320 C 228.170 83.663,226.190 82.769,225.200 82.335 C 224.210 81.901,222.922 81.287,222.338 80.973 C 221.754 80.658,220.854 80.397,220.338 80.394 C 219.822 80.391,219.130 80.213,218.800 80.000 C 218.101 79.548,217.799 79.593,222.600 79.429 C 226.797 79.286,228.053 78.921,226.998 78.149 C 226.585 77.847,225.928 77.600,225.537 77.600 C 225.147 77.600,224.236 77.351,223.514 77.047 C 218.698 75.021,212.778 74.579,209.239 75.981 M327.693 78.000 C 327.693 78.770,327.775 79.085,327.876 78.700 C 327.976 78.315,327.976 77.685,327.876 77.300 C 327.775 76.915,327.693 77.230,327.693 78.000 M67.693 78.800 C 67.693 79.570,67.775 79.885,67.876 79.500 C 67.976 79.115,67.976 78.485,67.876 78.100 C 67.775 77.715,67.693 78.030,67.693 78.800 M335.701 79.000 C 335.705 79.880,335.787 80.193,335.883 79.695 C 335.979 79.198,335.975 78.478,335.875 78.095 C 335.775 77.713,335.696 78.120,335.701 79.000 M59.709 81.600 C 59.709 82.590,59.787 82.995,59.882 82.500 C 59.978 82.005,59.978 81.195,59.882 80.700 C 59.787 80.205,59.709 80.610,59.709 81.600 M328.101 82.600 C 328.105 83.480,328.187 83.793,328.283 83.295 C 328.379 82.798,328.375 82.078,328.275 81.695 C 328.175 81.313,328.096 81.720,328.101 82.600 M336.101 83.800 C 336.105 84.680,336.187 84.993,336.283 84.495 C 336.379 83.998,336.375 83.278,336.275 82.895 C 336.175 82.513,336.096 82.920,336.101 83.800 M67.379 99.200 C 67.379 106.570,67.433 109.585,67.499 105.900 C 67.565 102.215,67.565 96.185,67.499 92.500 C 67.433 88.815,67.379 91.830,67.379 99.200 M195.024 86.613 C 194.596 86.936,193.820 87.200,193.297 87.200 C 192.775 87.200,191.986 87.393,191.545 87.630 C 191.103 87.866,188.460 88.319,185.671 88.638 C 178.667 89.437,176.486 89.803,174.277 90.553 C 173.229 90.909,172.106 91.200,171.781 91.200 C 171.455 91.200,170.877 91.373,170.495 91.584 C 170.113 91.796,168.752 92.471,167.471 93.084 C 163.007 95.223,162.488 95.573,160.539 97.759 C 158.598 99.938,157.189 103.447,157.206 106.066 C 157.221 108.541,159.580 113.712,159.609 111.333 C 159.635 109.122,164.337 103.138,167.288 101.560 C 169.401 100.430,175.437 97.468,176.700 96.942 C 177.415 96.644,178.585 96.133,179.300 95.806 C 180.015 95.480,181.770 94.772,183.200 94.233 C 188.516 92.231,195.200 88.400,195.200 87.354 C 195.200 87.049,195.470 86.800,195.800 86.800 C 196.130 86.800,196.400 86.620,196.400 86.400 C 196.400 85.848,195.941 85.919,195.024 86.613 M328.575 99.600 C 328.575 105.430,328.631 107.815,328.699 104.900 C 328.767 101.985,328.767 97.215,328.699 94.300 C 328.631 91.385,328.575 93.770,328.575 99.600 M336.566 99.200 C 336.566 103.270,336.625 104.935,336.698 102.900 C 336.771 100.865,336.771 97.535,336.698 95.500 C 336.625 93.465,336.566 95.130,336.566 99.200 M188.566 94.382 C 184.540 95.816,179.600 100.174,179.600 102.293 C 179.600 103.443,179.575 103.447,182.306 101.904 C 187.730 98.838,196.777 98.432,200.894 101.070 C 203.545 102.767,210.955 104.576,213.556 104.161 C 215.914 103.784,216.535 102.189,214.473 101.804 C 213.663 101.652,212.773 101.341,212.495 101.111 C 212.218 100.882,211.458 100.403,210.807 100.047 C 210.156 99.691,208.324 98.518,206.735 97.441 C 200.973 93.533,194.169 92.388,188.566 94.382 M252.000 97.928 C 250.990 98.386,249.600 99.378,249.600 99.642 C 249.600 100.041,258.577 100.482,260.579 100.182 C 263.211 99.788,262.869 99.510,258.499 98.490 C 254.539 97.566,253.078 97.440,252.000 97.928 M222.000 100.184 C 222.000 101.051,224.746 104.720,226.441 106.117 C 230.122 109.152,234.464 110.290,244.400 110.825 C 254.540 111.370,260.408 112.339,265.400 114.293 C 269.995 116.092,274.390 118.652,276.215 120.591 C 278.068 122.561,279.921 125.061,280.199 125.965 C 280.629 127.367,281.350 125.981,281.082 124.265 C 280.070 117.776,273.420 108.584,266.972 104.760 C 261.944 101.778,255.100 100.838,247.000 102.017 C 236.086 103.605,229.968 103.362,225.399 101.158 C 223.859 100.416,222.465 99.747,222.300 99.671 C 222.135 99.595,222.000 99.826,222.000 100.184 M123.777 101.330 C 116.276 105.349,108.082 114.353,105.149 121.800 C 101.549 130.938,101.077 143.102,104.096 148.895 C 105.275 151.156,105.503 150.463,105.707 144.000 C 106.008 134.495,108.844 126.472,114.593 118.862 C 117.368 115.188,127.150 106.800,128.658 106.800 C 130.441 106.800,131.177 103.509,129.933 101.100 C 129.402 100.072,125.880 100.203,123.777 101.330 M187.400 102.448 C 185.265 103.307,182.857 105.382,181.547 107.493 C 180.525 109.137,180.940 109.984,182.191 108.808 C 183.303 107.764,183.600 108.257,183.600 111.148 C 183.600 114.273,186.051 117.859,188.884 118.877 C 189.480 119.092,190.071 119.592,190.197 119.990 C 191.267 123.362,198.799 121.764,204.251 117.010 C 205.819 115.643,208.322 113.841,209.814 113.007 L 212.526 111.491 210.010 110.312 C 208.627 109.664,207.294 108.957,207.048 108.741 C 206.267 108.056,199.893 104.065,198.621 103.465 C 195.304 101.899,194.215 101.601,191.886 101.622 C 190.371 101.635,188.619 101.958,187.400 102.448 M172.288 105.337 C 167.174 110.603,167.331 117.528,172.650 121.299 C 177.074 124.437,181.480 125.030,178.500 122.087 C 175.877 119.495,174.522 116.688,173.935 112.624 C 173.546 109.936,173.542 108.690,173.915 106.910 C 174.534 103.961,174.064 103.508,172.288 105.337 M194.678 107.765 C 198.277 110.862,193.416 116.548,189.647 113.649 C 188.136 112.487,187.959 109.204,189.334 107.830 C 190.724 106.440,193.103 106.411,194.678 107.765 M204.400 111.878 C 204.400 112.795,202.507 115.469,201.199 116.401 C 199.688 117.477,199.383 117.286,200.163 115.754 C 201.296 113.531,202.000 111.672,202.000 110.906 C 202.000 110.481,202.122 110.012,202.270 109.863 C 202.626 109.507,204.400 111.185,204.400 111.878 M139.117 111.012 C 139.713 111.569,140.613 112.131,141.117 112.260 C 141.622 112.390,141.967 112.699,141.884 112.948 C 141.399 114.406,137.600 112.651,137.600 110.967 C 137.600 109.753,137.776 109.758,139.117 111.012 M222.000 111.848 C 220.790 112.164,219.440 112.594,219.000 112.803 C 218.560 113.012,217.750 113.375,217.200 113.609 C 215.930 114.149,215.558 114.378,210.000 118.037 C 200.162 124.515,193.712 126.474,188.400 124.600 C 184.491 123.221,184.180 124.231,187.710 126.842 C 194.826 132.106,202.406 132.478,210.103 127.939 C 211.166 127.313,212.168 126.800,212.331 126.800 C 212.709 126.800,218.119 123.068,219.120 122.118 C 219.536 121.723,221.028 120.303,222.438 118.963 C 225.433 116.115,228.727 113.734,230.177 113.370 C 230.918 113.184,231.200 112.849,231.200 112.157 C 231.200 110.994,225.942 110.817,222.000 111.848 M336.114 115.800 C 336.117 116.900,336.195 117.303,336.287 116.695 C 336.379 116.086,336.377 115.186,336.282 114.695 C 336.187 114.203,336.111 114.700,336.114 115.800 M242.811 115.185 C 242.293 115.512,242.293 115.578,242.811 115.731 C 243.135 115.826,244.030 116.089,244.800 116.316 C 249.300 117.639,254.101 120.617,258.223 124.643 C 261.112 127.465,264.657 131.814,265.523 133.600 C 265.790 134.150,266.364 135.140,266.798 135.800 C 267.233 136.460,267.774 137.425,268.001 137.944 C 270.094 142.731,275.018 147.165,279.800 148.569 C 281.120 148.957,282.753 149.437,283.428 149.637 C 285.306 150.192,285.683 150.090,284.900 149.238 C 283.702 147.933,281.672 145.037,281.227 143.995 C 280.993 143.448,280.634 142.730,280.428 142.400 C 280.223 142.070,279.659 140.720,279.175 139.400 C 277.787 135.616,275.960 131.056,275.569 130.400 C 275.373 130.070,274.952 129.224,274.634 128.519 C 272.500 123.786,263.315 117.700,255.214 115.651 C 251.636 114.746,243.961 114.458,242.811 115.185 M328.093 116.800 C 328.093 117.570,328.175 117.885,328.276 117.500 C 328.376 117.115,328.376 116.485,328.276 116.100 C 328.175 115.715,328.093 116.030,328.093 116.800 M59.701 118.200 C 59.705 119.080,59.787 119.393,59.883 118.895 C 59.979 118.398,59.975 117.678,59.875 117.295 C 59.775 116.913,59.696 117.320,59.701 118.200 M233.800 118.682 C 230.575 119.116,225.805 121.651,221.459 125.239 C 219.188 127.114,216.235 129.031,214.200 129.952 C 213.100 130.450,211.916 131.006,211.569 131.189 C 210.266 131.874,204.076 133.223,200.800 133.536 C 197.618 133.839,197.477 133.891,198.600 134.338 C 199.260 134.601,200.160 134.986,200.600 135.193 C 205.180 137.351,218.139 138.104,222.513 136.467 C 226.611 134.933,228.773 133.151,231.486 129.071 C 233.613 125.871,237.151 121.938,239.323 120.360 C 241.638 118.678,239.239 117.949,233.800 118.682 M335.693 120.400 C 335.693 121.170,335.775 121.485,335.876 121.100 C 335.976 120.715,335.976 120.085,335.876 119.700 C 335.775 119.315,335.693 119.630,335.693 120.400 M67.693 120.800 C 67.693 121.570,67.775 121.885,67.876 121.500 C 67.976 121.115,67.976 120.485,67.876 120.100 C 67.775 119.715,67.693 120.030,67.693 120.800 M327.701 121.400 C 327.705 122.280,327.787 122.593,327.883 122.095 C 327.979 121.598,327.975 120.878,327.875 120.495 C 327.775 120.113,327.696 120.520,327.701 121.400 M60.093 122.400 C 60.093 123.170,60.175 123.485,60.276 123.100 C 60.376 122.715,60.376 122.085,60.276 121.700 C 60.175 121.315,60.093 121.630,60.093 122.400 M335.301 125.800 C 335.305 126.680,335.387 126.993,335.483 126.495 C 335.579 125.998,335.575 125.278,335.475 124.895 C 335.375 124.513,335.296 124.920,335.301 125.800 M243.022 125.468 C 241.191 125.988,234.000 131.826,234.000 132.792 C 234.000 132.957,236.115 133.080,238.700 133.065 C 243.768 133.034,245.541 133.508,251.135 136.384 C 257.246 139.526,262.597 140.867,264.317 139.687 C 264.821 139.341,262.219 136.333,255.600 129.610 C 252.090 126.046,246.948 124.352,243.022 125.468 M327.301 127.400 C 327.305 128.280,327.387 128.593,327.483 128.095 C 327.579 127.598,327.575 126.878,327.475 126.495 C 327.375 126.113,327.296 126.520,327.301 127.400 M60.493 127.600 C 60.493 128.370,60.575 128.685,60.676 128.300 C 60.776 127.915,60.776 127.285,60.676 126.900 C 60.575 126.515,60.493 126.830,60.493 127.600 M68.493 129.600 C 68.493 130.370,68.575 130.685,68.676 130.300 C 68.776 129.915,68.776 129.285,68.676 128.900 C 68.575 128.515,68.493 128.830,68.493 129.600 M140.800 133.195 C 130.119 134.114,120.051 137.006,118.472 139.608 C 117.703 140.877,117.976 140.939,122.148 140.447 C 126.345 139.952,147.622 139.841,149.200 140.305 C 149.784 140.477,147.623 140.683,144.005 140.800 C 136.855 141.031,136.855 141.031,138.518 144.526 C 140.500 148.689,147.268 155.600,149.363 155.600 C 150.244 155.600,150.207 155.495,148.400 152.847 C 146.902 150.652,146.294 148.400,147.200 148.400 C 147.420 148.400,147.600 148.563,147.600 148.761 C 147.600 149.407,150.138 152.028,152.800 154.134 C 154.230 155.264,155.609 156.372,155.865 156.595 C 156.121 156.818,156.931 157.439,157.665 157.975 C 162.458 161.477,165.831 166.806,167.681 173.800 C 167.914 174.680,168.351 175.600,168.652 175.844 C 168.953 176.088,169.200 176.843,169.200 177.520 C 169.200 178.198,169.380 178.864,169.600 179.000 C 170.115 179.318,170.102 178.841,169.433 172.600 C 168.916 167.784,167.827 162.788,166.897 160.964 C 163.389 154.086,163.295 153.160,166.342 155.537 C 168.189 156.977,172.690 159.599,173.321 159.602 C 173.585 159.604,174.319 159.876,174.953 160.206 C 176.107 160.808,177.032 160.980,181.262 161.383 C 183.947 161.638,184.214 160.632,181.770 159.466 C 181.018 159.108,178.197 156.543,175.501 153.768 C 169.994 148.098,166.938 145.823,163.753 145.024 C 163.176 144.879,162.442 144.499,162.123 144.180 C 161.804 143.861,160.846 143.600,159.995 143.600 C 159.144 143.600,158.336 143.420,158.200 143.200 C 158.048 142.954,158.721 142.800,159.953 142.800 C 161.053 142.800,162.064 142.980,162.200 143.200 C 162.336 143.420,162.880 143.600,163.409 143.600 C 163.937 143.600,165.322 143.931,166.485 144.337 C 167.648 144.742,169.680 145.390,171.000 145.776 C 172.320 146.162,173.991 146.731,174.714 147.039 C 176.578 147.835,178.672 147.810,178.000 147.000 C 177.726 146.670,177.164 146.400,176.751 146.400 C 176.338 146.400,176.000 146.265,176.000 146.099 C 176.000 145.934,173.133 144.359,169.629 142.599 C 165.168 140.359,163.250 139.192,163.229 138.704 C 163.197 137.938,162.440 137.932,176.562 138.806 C 186.344 139.412,187.002 139.383,186.084 138.398 C 185.570 137.846,184.471 137.477,182.568 137.218 C 181.046 137.010,178.090 136.459,176.000 135.994 C 165.558 133.668,149.827 132.417,140.800 133.195 M237.400 139.635 C 235.200 139.812,231.510 140.227,229.200 140.557 C 218.848 142.036,215.769 142.307,213.582 141.935 C 212.382 141.731,210.384 141.408,209.141 141.218 C 207.899 141.028,206.528 140.682,206.094 140.450 C 204.762 139.738,204.715 140.485,206.017 141.674 C 206.695 142.293,207.416 142.800,207.619 142.800 C 207.822 142.800,208.846 143.318,209.894 143.952 C 214.242 146.579,224.008 148.008,237.600 148.007 C 249.174 148.006,260.372 149.867,265.262 152.605 C 265.846 152.932,266.515 153.200,266.750 153.200 C 267.620 153.200,273.270 157.361,274.976 159.257 C 277.069 161.585,277.648 161.213,276.410 158.335 C 272.650 149.595,266.835 144.797,255.200 140.837 C 251.064 139.429,245.013 139.021,237.400 139.635 M155.900 141.452 C 157.385 141.850,156.918 142.400,155.100 142.395 C 152.976 142.388,151.541 142.019,151.828 141.555 C 152.077 141.152,154.548 141.090,155.900 141.452 M173.257 141.556 C 172.608 141.967,172.953 142.210,174.724 142.590 C 176.115 142.889,184.877 147.272,187.732 149.097 C 188.649 149.684,189.940 150.454,190.600 150.810 C 191.260 151.165,192.851 152.035,194.135 152.742 C 201.875 157.005,219.735 158.724,227.040 155.909 L 229.400 155.000 227.200 154.692 C 222.627 154.053,218.922 153.168,217.033 152.264 C 216.355 151.939,214.990 151.371,214.000 151.000 C 213.010 150.629,211.660 150.086,211.000 149.793 C 208.852 148.837,207.062 148.084,203.400 146.594 C 201.420 145.789,198.990 144.795,198.000 144.386 C 192.458 142.097,175.471 140.154,173.257 141.556 M178.800 148.400 C 178.800 148.620,179.261 148.800,179.824 148.800 C 180.404 148.800,180.740 148.627,180.600 148.400 C 180.464 148.180,180.003 148.000,179.576 148.000 C 179.149 148.000,178.800 148.180,178.800 148.400 M278.980 152.900 C 279.797 155.585,279.982 156.935,279.990 160.267 C 280.004 165.370,281.320 168.278,283.900 168.906 C 285.034 169.182,285.450 168.558,284.721 167.675 C 283.818 166.582,282.806 163.187,282.427 159.984 C 282.234 158.343,281.800 156.247,281.465 155.327 C 280.609 152.982,278.327 150.752,278.980 152.900 M249.200 153.045 C 245.540 153.366,244.800 153.595,244.800 154.411 C 244.800 154.925,245.168 155.272,245.900 155.445 C 246.973 155.698,250.036 157.083,251.957 158.183 C 255.794 160.379,263.405 170.454,266.929 178.000 C 267.083 178.330,267.565 179.140,268.000 179.800 C 268.435 180.460,268.928 181.276,269.095 181.613 C 271.808 187.072,281.161 196.481,282.202 194.797 C 282.318 194.609,282.247 194.353,282.045 194.228 C 280.469 193.254,277.057 183.893,273.836 171.706 C 270.086 157.521,262.625 151.869,249.200 153.045 M183.837 153.540 C 183.721 153.727,184.371 154.492,185.281 155.240 C 186.191 155.988,187.783 157.340,188.820 158.245 C 189.856 159.150,192.210 161.026,194.052 162.413 C 195.893 163.800,197.688 165.220,198.040 165.568 C 198.951 166.467,201.043 168.295,203.632 170.455 C 204.860 171.479,206.839 173.550,208.029 175.058 C 209.220 176.566,210.339 177.980,210.516 178.200 C 213.566 181.990,217.338 188.916,217.864 191.690 C 218.001 192.410,218.259 193.288,218.439 193.641 C 219.351 195.434,219.964 202.970,220.158 214.800 C 220.277 222.037,220.552 228.081,220.805 229.000 C 221.047 229.880,221.424 231.320,221.642 232.200 C 222.614 236.123,225.587 240.503,228.930 242.935 C 230.892 244.363,231.516 243.919,230.594 241.753 C 229.750 239.768,229.402 233.468,229.935 229.800 C 230.724 224.373,231.563 219.583,231.791 219.215 C 232.618 217.876,233.131 206.257,232.588 201.142 C 231.925 194.892,229.944 187.662,228.000 184.400 C 227.804 184.070,227.098 182.720,226.431 181.400 C 221.838 172.301,209.248 160.800,203.879 160.800 C 203.593 160.800,203.189 160.637,202.980 160.437 C 202.771 160.238,201.430 159.599,200.000 159.019 C 198.570 158.439,197.040 157.796,196.600 157.590 C 195.558 157.103,188.949 154.841,187.391 154.438 C 186.725 154.266,185.792 153.917,185.317 153.663 C 184.284 153.110,184.112 153.096,183.837 153.540 M231.280 160.480 C 230.523 161.237,230.716 161.892,231.773 162.157 C 234.181 162.762,241.280 168.709,244.359 172.701 C 248.105 177.557,249.215 179.077,251.547 182.538 C 253.006 184.703,254.380 186.773,254.600 187.136 C 254.820 187.500,256.118 189.262,257.485 191.051 C 261.416 196.199,265.093 199.249,271.075 202.325 C 274.412 204.042,281.200 205.164,281.200 204.000 C 281.200 203.780,281.045 203.600,280.856 203.600 C 280.011 203.600,276.576 200.007,273.301 195.697 C 269.817 191.112,268.586 189.252,266.260 185.056 C 265.633 183.925,264.895 182.730,264.621 182.400 C 264.346 182.070,263.997 181.530,263.845 181.200 C 262.212 177.656,254.918 169.079,251.600 166.800 C 250.830 166.271,250.110 165.725,250.000 165.586 C 249.193 164.569,243.282 161.720,239.725 160.634 C 237.259 159.881,231.975 159.785,231.280 160.480 M216.600 161.600 C 216.464 161.820,216.723 162.000,217.176 162.000 C 217.629 162.000,218.000 162.254,218.000 162.564 C 218.000 162.875,218.549 163.591,219.220 164.155 C 220.747 165.440,224.392 169.674,224.396 170.169 C 224.398 170.371,224.646 170.821,224.946 171.169 C 225.246 171.516,226.267 173.238,227.216 174.996 C 228.165 176.753,229.584 179.385,230.371 180.844 C 234.830 189.117,240.805 196.886,244.951 199.800 C 245.577 200.240,246.294 200.788,246.544 201.018 C 249.328 203.570,259.600 207.441,259.600 205.939 C 259.600 205.713,258.819 204.599,257.864 203.464 C 254.974 200.027,253.874 198.170,251.187 192.200 C 247.087 183.086,245.412 180.625,239.348 174.800 C 234.155 169.812,230.330 167.265,221.600 162.983 C 221.050 162.713,220.017 162.368,219.305 162.215 C 218.592 162.063,217.906 161.772,217.781 161.569 C 217.481 161.084,216.910 161.099,216.600 161.600 M171.791 163.680 C 171.651 164.045,171.814 164.942,172.154 165.672 C 173.983 169.606,174.018 179.952,172.228 188.000 C 168.916 202.895,168.593 214.718,171.268 223.103 C 172.133 225.812,172.563 225.991,172.971 223.812 C 173.229 222.439,175.096 217.354,176.206 215.000 C 176.518 214.340,176.893 213.260,177.041 212.600 C 177.189 211.940,177.450 211.220,177.620 211.000 C 177.790 210.780,178.103 209.700,178.315 208.600 C 178.527 207.500,178.894 205.790,179.130 204.800 C 180.822 197.692,180.960 196.502,180.980 188.800 C 181.001 180.794,180.780 179.224,178.927 174.200 C 177.715 170.916,175.311 166.660,173.572 164.718 C 172.330 163.332,171.998 163.139,171.791 163.680 M154.051 167.307 C 152.704 169.338,151.427 171.270,151.212 171.600 C 147.848 176.768,145.858 179.871,145.008 181.274 C 144.784 181.645,143.700 183.417,142.600 185.213 C 138.111 192.542,130.911 206.300,128.792 211.600 C 128.308 212.810,127.680 214.340,127.395 215.000 C 127.110 215.660,126.650 216.740,126.372 217.400 C 125.583 219.274,123.184 226.066,122.837 227.409 C 122.666 228.075,122.334 228.976,122.100 229.412 C 121.496 230.541,121.308 233.687,121.834 233.871 C 122.073 233.954,123.001 232.983,123.897 231.711 C 124.793 230.440,128.288 226.597,131.663 223.172 C 135.038 219.746,138.207 216.416,138.703 215.772 C 139.200 215.127,140.439 213.520,141.456 212.200 C 142.474 210.880,143.558 209.260,143.866 208.600 C 144.174 207.940,144.775 206.860,145.202 206.200 C 146.037 204.909,150.400 196.142,150.400 195.755 C 150.400 195.626,150.662 194.954,150.982 194.260 C 152.052 191.943,153.200 188.777,153.200 188.146 C 153.200 187.802,153.457 186.954,153.770 186.260 C 154.084 185.567,154.549 184.100,154.803 183.000 C 155.228 181.165,155.484 179.940,156.763 173.645 C 157.285 171.072,157.346 164.138,156.849 163.830 C 156.656 163.711,155.397 165.276,154.051 167.307 M178.190 165.216 C 178.027 165.481,180.776 168.572,184.873 172.733 C 188.701 176.620,192.726 180.880,193.817 182.200 C 194.908 183.520,195.908 184.690,196.041 184.800 C 198.191 186.585,205.604 197.443,207.784 202.000 C 208.362 203.210,209.080 204.650,209.379 205.200 C 210.500 207.267,212.419 213.677,212.639 216.092 C 212.970 219.720,213.114 219.936,214.024 218.162 C 216.384 213.557,216.657 194.497,214.394 192.234 C 214.177 192.017,214.000 191.596,214.000 191.298 C 214.000 190.051,210.497 183.639,208.994 182.137 C 208.701 181.844,208.133 181.198,207.731 180.702 C 206.437 179.105,201.875 175.345,199.200 173.670 C 194.853 170.950,191.221 169.279,184.600 166.956 C 183.060 166.415,181.440 165.810,181.000 165.612 C 179.449 164.911,178.464 164.772,178.190 165.216 M161.457 168.054 C 161.372 168.355,160.909 169.950,160.428 171.600 C 156.758 184.179,155.578 189.980,153.919 203.600 C 152.951 211.554,153.398 222.679,154.981 230.000 C 155.290 231.430,155.652 233.267,155.786 234.083 C 155.920 234.899,156.292 236.069,156.612 236.683 C 156.933 237.297,157.196 238.109,157.198 238.486 C 157.201 239.411,160.168 246.000,162.322 249.864 C 163.583 252.126,163.945 250.563,163.000 246.935 C 162.341 244.404,162.205 232.801,162.788 228.800 C 162.964 227.590,163.314 225.070,163.564 223.200 C 163.815 221.330,164.191 219.350,164.401 218.800 C 164.610 218.250,164.958 216.450,165.174 214.800 C 165.720 210.635,166.373 206.664,167.017 203.600 C 168.618 195.978,168.557 182.120,166.900 177.000 C 164.942 170.949,162.001 166.117,161.457 168.054 M276.454 168.875 C 276.366 170.631,277.542 175.064,278.912 178.133 C 280.043 180.666,281.311 182.704,286.331 190.058 C 287.029 191.080,287.606 192.070,287.614 192.258 C 287.621 192.446,287.975 193.320,288.400 194.200 C 288.825 195.080,289.182 196.430,289.193 197.200 C 289.226 199.576,289.867 199.988,290.390 197.969 C 290.642 196.996,290.931 195.911,291.033 195.557 C 291.988 192.239,289.215 185.435,284.530 179.600 C 281.437 175.749,278.999 172.176,278.415 170.640 C 278.198 170.068,277.758 169.600,277.438 169.600 C 277.118 169.600,276.778 169.195,276.682 168.700 C 276.530 167.911,276.502 167.932,276.454 168.875 M181.200 173.205 C 181.200 173.428,181.371 173.923,181.579 174.305 C 182.163 175.377,183.167 180.665,183.419 184.000 C 183.815 189.241,185.362 194.782,187.493 198.600 C 187.985 199.480,188.572 200.560,188.799 201.000 C 189.026 201.440,189.524 202.262,189.906 202.828 C 195.374 210.925,196.213 212.423,196.839 215.200 C 197.062 216.190,197.521 217.424,197.859 217.943 C 200.541 222.054,199.960 203.041,197.194 196.200 C 196.315 194.026,195.157 191.413,194.719 190.615 C 194.481 190.184,193.860 189.026,193.337 188.044 C 191.994 185.518,187.508 178.865,186.025 177.200 C 182.456 173.193,181.200 172.153,181.200 173.205 M182.515 195.829 C 181.888 197.364,182.188 209.215,182.934 212.400 C 184.914 220.857,186.011 223.530,189.225 227.727 C 192.169 231.572,195.896 235.064,196.456 234.504 C 196.807 234.153,196.774 233.818,196.319 233.121 C 195.603 232.021,194.454 227.033,194.002 223.060 C 193.137 215.456,191.246 208.825,188.887 205.121 C 187.728 203.300,185.817 200.611,185.528 200.393 C 185.377 200.279,184.708 199.033,184.042 197.622 C 183.042 195.508,182.774 195.194,182.515 195.829 M236.677 198.256 C 236.536 198.397,236.686 199.027,237.011 199.656 C 237.335 200.285,237.863 201.311,238.185 201.936 C 238.506 202.560,239.248 204.855,239.834 207.036 C 241.126 211.845,241.811 214.213,242.369 215.800 C 242.600 216.460,243.271 218.440,243.859 220.200 C 245.319 224.573,245.937 226.287,246.351 227.105 C 246.544 227.487,247.459 229.330,248.384 231.200 C 249.309 233.070,250.953 235.860,252.038 237.400 C 256.445 243.658,257.346 245.170,259.428 249.800 C 259.724 250.460,260.085 251.675,260.228 252.500 C 261.215 258.176,262.115 246.489,261.222 239.600 C 260.416 233.392,259.974 231.436,257.959 225.154 C 254.793 215.284,247.901 205.542,240.056 199.847 C 237.462 197.963,237.127 197.806,236.677 198.256 M150.800 202.638 C 150.800 202.989,150.549 203.754,150.243 204.338 C 149.937 204.922,148.904 207.020,147.948 209.000 C 146.992 210.980,145.846 213.140,145.401 213.800 C 143.269 216.965,140.962 219.916,139.744 221.035 C 139.005 221.715,138.400 222.465,138.400 222.702 C 138.400 222.939,138.175 223.214,137.900 223.312 C 137.625 223.410,137.503 223.603,137.629 223.741 C 137.909 224.047,141.160 222.856,142.031 222.128 C 142.379 221.838,142.832 221.600,143.038 221.600 C 143.668 221.600,147.539 218.029,148.154 216.879 C 149.770 213.863,150.320 212.291,150.932 208.943 C 151.686 204.816,151.794 202.000,151.200 202.000 C 150.980 202.000,150.800 202.287,150.800 202.638 M267.053 205.807 C 266.681 206.775,266.745 209.425,267.166 210.481 C 267.367 210.987,267.935 212.750,268.428 214.400 C 268.920 216.050,269.558 217.850,269.845 218.400 C 270.132 218.950,270.750 220.300,271.218 221.400 C 271.686 222.500,272.389 224.120,272.781 225.000 C 273.173 225.880,273.797 227.320,274.166 228.200 C 274.536 229.080,275.010 230.113,275.220 230.495 C 275.429 230.877,275.879 231.957,276.219 232.895 C 278.099 238.079,278.772 240.585,279.232 244.116 C 279.828 248.687,280.448 249.082,281.566 245.600 C 284.622 236.081,284.617 226.548,281.553 221.428 C 281.149 220.752,278.089 217.508,274.753 214.217 C 271.085 210.600,268.414 207.625,267.996 206.692 C 267.474 205.525,267.244 205.309,267.053 205.807 M278.217 210.100 C 278.758 212.610,281.667 216.400,283.052 216.400 C 283.209 216.400,283.680 216.710,284.099 217.089 C 285.414 218.280,290.606 218.066,292.483 216.744 C 294.131 215.582,294.069 215.200,292.231 215.200 C 289.301 215.200,284.855 213.165,280.742 209.942 C 278.715 208.353,277.852 208.407,278.217 210.100 M178.553 214.612 C 178.384 215.265,178.242 218.320,178.238 221.400 C 178.229 227.516,178.528 228.773,181.191 233.806 C 182.407 236.102,184.708 238.110,184.246 236.471 C 184.142 236.102,183.947 233.910,183.813 231.600 C 183.590 227.770,182.444 222.033,181.557 220.305 C 181.360 219.923,181.195 219.383,181.189 219.105 C 181.150 217.359,178.854 213.445,178.553 214.612 M165.313 225.265 C 165.455 231.443,165.961 234.795,167.086 237.017 C 167.304 237.447,167.812 238.520,168.216 239.400 C 169.123 241.380,173.128 247.402,173.928 247.989 C 175.939 249.466,180.959 256.363,181.979 259.050 C 183.838 263.945,185.090 258.858,184.011 250.800 C 183.017 243.378,180.772 238.383,176.721 234.578 C 169.748 228.028,166.000 222.810,166.000 219.654 C 166.000 219.430,165.811 219.131,165.581 218.988 C 165.293 218.810,165.209 220.777,165.313 225.265 M114.783 268.900 C 116.441 270.666,116.800 270.984,116.800 270.683 C 116.800 270.619,115.945 269.764,114.900 268.783 L 113.000 267.000 114.783 268.900 M127.983 271.300 C 129.641 273.066,130.000 273.384,130.000 273.083 C 130.000 273.019,129.145 272.164,128.100 271.183 L 126.200 269.400 127.983 271.300 M271.178 278.700 L 269.800 280.200 271.300 278.822 C 272.696 277.538,272.984 277.200,272.678 277.200 C 272.612 277.200,271.937 277.875,271.178 278.700 M207.800 360.680 C 199.166 361.528,195.947 363.193,193.651 368.000 L 192.600 370.200 192.600 396.600 L 192.600 423.000 193.657 425.200 C 195.657 429.360,198.913 431.235,205.400 431.960 C 214.699 432.999,221.220 430.586,223.667 425.200 C 224.538 423.285,225.274 406.454,224.637 403.056 L 224.364 401.600 218.596 401.600 C 211.483 401.600,212.000 400.917,212.000 410.314 C 212.000 419.430,211.556 420.800,208.600 420.800 C 205.241 420.800,205.203 420.536,205.212 396.800 C 205.220 372.799,205.276 372.400,208.632 372.400 C 211.543 372.400,211.785 373.049,211.926 381.254 C 212.082 390.291,211.526 389.600,218.641 389.600 L 224.385 389.600 224.649 388.548 C 225.245 386.173,224.498 369.905,223.700 367.882 C 222.791 365.580,221.002 363.595,218.803 362.449 C 216.847 361.429,210.524 360.413,207.800 360.680 M242.800 361.059 C 236.096 362.361,233.226 365.054,231.873 371.311 C 230.886 375.877,230.862 417.355,231.844 421.672 C 233.563 429.231,237.985 432.179,247.600 432.179 C 256.896 432.179,261.232 429.483,263.243 422.450 C 264.418 418.340,264.403 374.643,263.224 370.391 C 261.070 362.616,253.229 359.033,242.800 361.059 M90.273 361.861 C 90.123 362.011,90.000 377.651,90.000 396.617 L 90.000 431.100 91.250 431.350 C 92.841 431.668,100.710 431.667,101.900 431.348 L 102.800 431.107 102.800 417.386 C 102.800 400.667,102.205 402.401,107.943 402.395 C 115.010 402.386,114.400 403.010,114.400 395.796 C 114.400 388.590,114.957 389.200,108.381 389.200 C 102.440 389.200,102.744 389.637,102.890 381.307 L 103.000 375.000 108.282 374.800 C 114.851 374.551,114.446 375.023,114.311 367.769 L 114.200 361.800 102.373 361.694 C 95.867 361.636,90.422 361.711,90.273 361.861 M128.198 362.100 C 127.728 363.426,127.154 366.791,126.797 370.311 C 126.397 374.245,126.116 376.398,125.009 384.000 C 124.673 386.310,124.215 390.000,123.991 392.200 C 123.767 394.400,123.416 397.010,123.210 398.000 C 123.003 398.990,122.827 400.610,122.818 401.600 C 122.808 402.590,122.540 404.840,122.222 406.600 C 121.904 408.360,121.442 411.510,121.195 413.600 C 120.041 423.392,119.565 427.148,119.254 428.932 C 118.821 431.415,119.243 431.600,125.350 431.600 C 131.316 431.600,131.986 430.771,131.997 423.380 C 132.001 420.655,132.362 420.400,136.204 420.400 C 140.784 420.400,140.821 420.443,141.214 426.163 C 141.608 431.911,140.957 431.375,147.733 431.528 C 154.196 431.674,155.848 431.323,155.426 429.893 C 155.282 429.402,154.909 426.840,154.598 424.200 C 154.287 421.560,153.851 418.140,153.630 416.600 C 153.409 415.060,152.951 411.640,152.614 409.000 C 152.276 406.360,151.801 402.760,151.559 401.000 C 151.317 399.240,150.892 395.910,150.614 393.600 C 149.639 385.499,149.157 381.767,148.600 378.000 C 147.990 373.877,147.174 367.554,146.923 365.000 C 146.836 364.120,146.679 362.995,146.575 362.500 L 146.385 361.600 137.380 361.600 C 130.537 361.600,128.332 361.720,128.198 362.100 M161.298 396.490 L 161.400 431.400 173.315 431.506 C 188.100 431.637,186.800 432.220,186.800 425.466 C 186.800 418.798,187.229 419.200,180.120 419.200 C 176.974 419.200,174.358 419.155,174.307 419.100 C 174.255 419.045,174.120 406.130,174.007 390.400 L 173.800 361.800 167.498 361.690 L 161.196 361.580 161.298 396.490 M271.067 361.867 C 270.920 362.013,270.800 377.588,270.800 396.477 L 270.800 430.820 271.826 431.210 C 272.956 431.639,281.146 431.749,282.189 431.349 C 282.783 431.121,282.840 429.479,282.799 413.849 C 282.773 404.362,282.764 396.285,282.776 395.900 C 282.819 394.625,283.506 395.174,283.777 396.700 C 283.924 397.525,284.285 398.920,284.580 399.800 C 284.874 400.680,285.398 402.390,285.743 403.600 C 287.116 408.420,287.663 410.317,288.452 413.000 C 288.905 414.540,289.554 416.790,289.894 418.000 C 290.235 419.210,290.752 421.010,291.043 422.000 C 291.334 422.990,291.939 425.045,292.386 426.567 C 292.834 428.089,293.200 429.669,293.200 430.077 C 293.200 431.442,300.350 432.230,304.752 431.350 L 306.004 431.099 305.902 396.450 L 305.800 361.800 300.000 361.800 L 294.200 361.800 294.149 379.200 C 294.090 399.383,294.119 398.403,293.600 397.600 C 293.387 397.270,293.210 396.550,293.208 396.000 C 293.206 395.450,292.941 394.190,292.620 393.200 C 291.850 390.829,290.613 386.433,289.804 383.200 C 289.050 380.185,288.366 377.706,287.219 373.833 C 286.769 372.311,286.400 370.805,286.400 370.486 C 286.400 370.168,286.143 369.073,285.830 368.054 C 285.516 367.034,284.947 365.165,284.565 363.900 L 283.870 361.600 277.602 361.600 C 274.154 361.600,271.213 361.720,271.067 361.867 M250.000 373.186 L 251.000 373.954 251.000 396.412 L 251.000 418.871 250.056 419.635 C 248.902 420.569,246.715 420.625,245.386 419.754 L 244.400 419.108 244.400 396.518 L 244.400 373.928 245.300 373.177 C 246.467 372.204,248.727 372.208,250.000 373.186 M137.468 384.525 C 137.735 387.206,138.144 391.740,138.376 394.600 C 138.609 397.460,138.979 401.350,139.199 403.245 C 139.420 405.140,139.600 407.435,139.600 408.345 L 139.600 410.000 136.559 410.000 L 133.518 410.000 133.703 406.700 C 133.980 401.756,134.771 393.532,135.425 388.800 C 135.744 386.490,136.004 383.947,136.002 383.150 C 135.994 377.714,136.873 378.539,137.468 384.525 " stroke="none" fill="#eccd04" fill-rule="evenodd"></path><path id="path1" d="M195.200 15.156 C 193.990 15.554,191.920 16.196,190.600 16.584 C 189.280 16.971,187.570 17.532,186.800 17.831 C 186.030 18.130,184.723 18.491,183.896 18.633 C 183.068 18.775,182.302 19.035,182.193 19.211 C 182.085 19.386,181.262 19.654,180.365 19.806 C 179.468 19.957,178.254 20.332,177.667 20.638 C 177.080 20.944,176.330 21.195,176.000 21.196 C 175.403 21.196,172.672 22.029,170.000 23.026 C 169.230 23.313,167.250 23.943,165.600 24.425 C 163.950 24.908,161.045 25.801,159.144 26.410 C 157.244 27.019,155.116 27.643,154.417 27.796 C 153.718 27.950,152.663 28.327,152.073 28.635 C 151.483 28.943,150.754 29.196,150.454 29.198 C 149.942 29.200,147.649 29.883,144.400 31.000 C 142.950 31.499,141.120 32.066,136.000 33.604 C 134.350 34.099,132.321 34.751,131.492 35.052 C 130.662 35.354,129.700 35.600,129.352 35.600 C 129.005 35.600,128.154 35.853,127.460 36.163 C 126.079 36.780,120.888 38.400,120.293 38.400 C 120.088 38.400,119.354 38.651,118.660 38.957 C 117.967 39.264,115.870 39.928,114.000 40.434 C 112.130 40.939,110.413 41.489,110.184 41.655 C 109.956 41.822,109.056 42.140,108.184 42.363 C 105.004 43.174,102.181 43.999,101.400 44.345 C 100.960 44.540,99.250 45.096,97.600 45.581 C 95.950 46.066,93.880 46.699,93.000 46.987 C 92.120 47.275,90.050 47.914,88.400 48.407 C 86.750 48.899,83.877 49.819,82.015 50.451 C 80.153 51.083,78.381 51.600,78.076 51.600 C 77.771 51.600,76.954 51.839,76.260 52.132 C 74.606 52.830,71.338 53.856,69.673 54.201 C 68.943 54.352,67.863 54.727,67.273 55.035 C 66.683 55.343,65.876 55.596,65.480 55.598 C 64.090 55.602,62.472 56.757,62.262 57.893 C 57.636 82.927,59.147 133.740,65.394 163.200 C 65.697 164.630,66.062 166.678,66.205 167.752 C 66.348 168.826,66.613 170.086,66.795 170.552 C 66.977 171.018,67.510 173.110,67.979 175.200 C 68.901 179.304,69.778 182.750,70.628 185.600 C 70.923 186.590,71.563 188.750,72.050 190.400 C 73.438 195.104,74.397 198.130,74.775 199.000 C 74.966 199.440,75.517 200.970,76.000 202.400 C 76.483 203.830,77.419 206.350,78.080 208.000 C 78.742 209.650,79.566 211.720,79.912 212.600 C 80.969 215.285,82.005 217.685,83.195 220.200 C 86.131 226.402,88.107 230.400,89.325 232.600 C 90.055 233.920,91.097 235.810,91.639 236.800 C 92.182 237.790,93.139 239.410,93.767 240.400 C 94.394 241.390,95.559 243.243,96.354 244.517 C 97.149 245.792,98.430 247.709,99.200 248.778 C 99.970 249.847,100.870 251.113,101.200 251.592 C 105.020 257.135,110.152 263.563,114.600 268.379 C 123.307 277.805,134.068 287.561,140.000 291.406 C 140.770 291.906,141.760 292.651,142.200 293.064 C 142.640 293.476,143.990 294.459,145.200 295.248 C 146.410 296.037,148.808 297.609,150.529 298.741 C 152.251 299.874,153.766 300.800,153.898 300.800 C 154.029 300.800,154.421 301.052,154.769 301.359 C 155.852 302.319,169.034 309.177,174.000 311.364 C 175.430 311.994,177.921 313.115,179.536 313.855 C 181.150 314.595,182.680 315.206,182.936 315.214 C 183.191 315.221,184.120 315.575,185.000 316.000 C 185.880 316.425,186.841 316.779,187.136 316.786 C 187.431 316.794,189.321 317.382,191.336 318.094 C 195.612 319.603,199.905 319.855,202.613 318.755 C 203.486 318.401,206.360 317.419,209.000 316.574 C 211.640 315.729,213.980 314.913,214.200 314.760 C 214.420 314.608,215.770 313.994,217.200 313.396 C 226.835 309.365,237.283 303.875,245.000 298.788 C 246.320 297.917,247.670 297.080,248.000 296.927 C 248.740 296.585,251.796 294.464,255.055 292.032 C 256.405 291.024,257.902 289.930,258.382 289.600 C 263.525 286.065,277.451 273.005,283.120 266.400 C 286.103 262.924,290.927 256.975,291.524 256.035 C 291.886 255.466,292.282 254.910,292.405 254.800 C 292.527 254.690,293.301 253.573,294.124 252.318 C 294.946 251.062,295.784 249.934,295.985 249.809 C 296.186 249.685,296.947 248.578,297.675 247.348 C 298.404 246.119,299.270 244.703,299.600 244.200 C 299.930 243.697,300.830 242.257,301.600 241.000 C 302.370 239.743,303.302 238.238,303.671 237.657 C 305.110 235.390,309.891 226.052,312.403 220.600 C 313.316 218.620,314.408 216.260,314.831 215.356 C 315.254 214.452,315.600 213.522,315.600 213.289 C 315.600 213.056,315.870 212.310,316.200 211.632 C 316.530 210.955,317.070 209.845,317.400 209.168 C 317.730 208.490,318.000 207.752,318.000 207.528 C 318.000 207.304,318.243 206.554,318.540 205.860 C 319.783 202.961,322.748 194.291,324.170 189.400 C 328.065 176.001,330.339 165.632,332.590 151.000 C 336.792 123.689,337.568 90.217,334.579 65.200 C 334.251 62.450,333.986 59.622,333.991 58.916 C 334.001 57.459,332.799 56.093,331.208 55.755 C 330.654 55.637,329.210 55.214,328.000 54.814 C 326.790 54.415,324.720 53.775,323.400 53.391 C 322.080 53.008,320.370 52.472,319.600 52.200 C 318.830 51.928,317.120 51.392,315.800 51.009 C 314.480 50.625,312.410 49.991,311.200 49.600 C 309.990 49.209,307.920 48.575,306.600 48.191 C 305.280 47.808,303.570 47.263,302.800 46.980 C 302.030 46.698,300.410 46.176,299.200 45.819 C 292.477 43.840,291.285 43.465,290.086 42.957 C 289.364 42.651,288.425 42.400,288.000 42.400 C 287.575 42.400,286.636 42.143,285.914 41.828 C 285.191 41.514,283.250 40.863,281.600 40.381 C 279.950 39.899,277.970 39.272,277.200 38.987 C 276.430 38.701,274.270 38.059,272.400 37.558 C 270.530 37.057,268.813 36.511,268.584 36.345 C 268.356 36.178,267.456 35.859,266.584 35.636 C 262.503 34.589,260.166 33.889,259.800 33.603 C 259.580 33.431,258.636 33.164,257.702 33.010 C 256.768 32.856,255.912 32.582,255.800 32.400 C 255.688 32.218,254.832 31.943,253.898 31.788 C 252.964 31.634,251.871 31.334,251.469 31.123 C 250.760 30.750,248.259 29.990,245.016 29.163 C 244.144 28.940,243.244 28.608,243.016 28.425 C 242.787 28.242,241.970 27.965,241.200 27.809 C 239.763 27.518,236.877 26.661,234.400 25.788 C 233.630 25.517,231.650 24.890,230.000 24.396 C 228.350 23.901,225.470 23.009,223.600 22.414 C 219.959 21.255,215.950 20.026,212.400 18.981 C 211.190 18.624,209.570 18.102,208.800 17.820 C 208.030 17.537,206.320 16.989,205.000 16.602 C 203.680 16.214,201.564 15.560,200.298 15.149 C 197.563 14.259,197.933 14.258,195.200 15.156 M200.086 22.971 C 200.809 23.285,202.300 23.802,203.400 24.120 C 205.601 24.755,214.074 27.371,216.600 28.194 C 217.480 28.481,219.550 29.116,221.200 29.605 C 222.850 30.095,224.830 30.720,225.600 30.994 C 226.370 31.269,228.080 31.808,229.400 32.191 C 230.720 32.575,232.790 33.209,234.000 33.600 C 235.210 33.991,237.280 34.625,238.600 35.009 C 239.920 35.392,241.630 35.941,242.400 36.227 C 243.170 36.513,245.150 37.131,246.800 37.599 C 248.450 38.067,250.520 38.689,251.400 38.981 C 252.280 39.272,254.350 39.908,256.000 40.393 C 257.650 40.879,259.360 41.420,259.800 41.597 C 261.374 42.230,265.866 43.600,266.368 43.600 C 266.649 43.600,267.446 43.849,268.140 44.153 C 268.833 44.456,270.840 45.098,272.600 45.578 C 274.360 46.058,276.430 46.689,277.200 46.981 C 277.970 47.273,279.590 47.800,280.800 48.152 C 286.006 49.664,288.640 50.488,289.213 50.783 C 289.550 50.956,290.450 51.221,291.213 51.371 C 291.976 51.520,293.230 51.879,294.000 52.168 C 294.770 52.457,296.480 53.008,297.800 53.391 C 299.120 53.775,301.190 54.409,302.400 54.800 C 303.610 55.191,305.680 55.825,307.000 56.209 C 308.320 56.592,310.030 57.126,310.800 57.394 C 311.570 57.662,313.100 58.156,314.200 58.491 C 325.067 61.803,326.086 62.194,326.481 63.200 C 327.308 65.309,328.789 88.665,328.789 99.600 C 328.789 112.779,327.125 135.877,325.404 146.600 C 325.087 148.580,324.543 152.090,324.197 154.400 C 323.142 161.432,321.108 171.668,320.148 174.771 C 319.847 175.745,319.600 176.850,319.600 177.225 C 319.600 177.892,318.913 180.385,317.734 184.000 C 317.411 184.990,316.988 186.430,316.794 187.200 C 316.144 189.780,315.251 192.567,313.591 197.200 C 312.685 199.730,311.805 202.341,311.636 203.003 C 311.467 203.665,311.135 204.565,310.900 205.003 C 310.665 205.441,309.797 207.420,308.973 209.400 C 305.652 217.371,302.607 223.839,299.745 229.000 C 299.257 229.880,298.373 231.492,297.782 232.582 C 297.191 233.672,296.236 235.292,295.662 236.182 C 295.087 237.072,294.433 238.103,294.208 238.474 C 291.394 243.120,291.334 243.207,284.587 252.263 C 282.698 254.800,280.696 257.251,279.544 258.436 C 279.184 258.807,278.171 260.020,277.293 261.130 C 274.186 265.061,267.156 272.091,262.200 276.224 C 260.660 277.508,258.860 279.055,258.200 279.661 C 257.130 280.644,251.624 284.868,248.634 287.000 C 248.016 287.440,247.274 288.025,246.984 288.300 C 246.694 288.575,246.367 288.800,246.256 288.800 C 246.145 288.800,244.177 290.060,241.883 291.600 C 239.589 293.140,237.506 294.400,237.256 294.400 C 237.005 294.400,236.800 294.544,236.800 294.720 C 236.800 294.993,233.879 296.577,225.200 301.009 C 223.654 301.799,221.032 303.022,215.800 305.396 C 203.674 310.899,198.097 312.289,193.939 310.845 C 192.543 310.360,190.860 309.776,190.200 309.547 C 189.540 309.317,188.460 308.981,187.800 308.799 C 186.087 308.328,182.957 307.101,180.400 305.898 C 179.190 305.329,176.760 304.210,175.000 303.412 C 173.240 302.615,170.990 301.537,170.000 301.018 C 169.010 300.499,166.580 299.235,164.600 298.210 C 162.620 297.185,160.521 296.043,159.935 295.673 C 159.350 295.303,158.003 294.473,156.942 293.828 C 155.881 293.184,154.830 292.502,154.606 292.313 C 154.383 292.125,152.727 291.008,150.926 289.832 C 140.166 282.803,125.276 269.561,118.059 260.600 C 116.818 259.060,115.709 257.710,115.593 257.600 C 114.874 256.917,111.449 252.680,110.258 251.000 C 104.925 243.477,104.667 243.096,102.400 239.409 C 101.630 238.156,100.814 236.832,100.586 236.466 C 100.359 236.100,99.763 235.080,99.263 234.200 C 98.763 233.320,97.734 231.520,96.977 230.200 C 96.220 228.880,94.243 225.010,92.585 221.600 C 88.928 214.082,89.078 214.408,87.800 211.200 C 86.651 208.315,86.471 207.876,85.267 205.000 C 83.970 201.902,80.007 190.034,78.522 184.800 C 78.178 183.590,77.672 181.880,77.396 181.000 C 77.120 180.120,76.506 177.690,76.031 175.600 C 75.556 173.510,74.920 170.810,74.617 169.600 C 73.598 165.532,72.454 159.617,70.624 148.965 C 70.281 146.967,69.992 144.537,69.983 143.565 C 69.973 142.594,69.793 140.990,69.583 140.000 C 68.443 134.623,67.244 113.779,67.236 99.200 C 67.228 83.605,68.538 63.643,69.636 62.643 C 70.266 62.067,72.347 61.297,76.800 59.990 C 78.450 59.506,81.330 58.620,83.200 58.021 C 85.070 57.422,87.950 56.523,89.600 56.024 C 91.250 55.524,93.320 54.884,94.200 54.600 C 95.080 54.316,96.880 53.771,98.200 53.389 C 99.520 53.007,101.230 52.474,102.000 52.206 C 102.770 51.938,104.300 51.444,105.400 51.108 C 106.500 50.772,108.750 50.086,110.400 49.583 C 112.050 49.080,114.930 48.181,116.800 47.586 C 118.670 46.991,121.550 46.099,123.200 45.604 C 124.850 45.110,126.830 44.483,127.600 44.212 C 130.077 43.339,132.963 42.482,134.400 42.191 C 135.170 42.035,135.987 41.758,136.216 41.575 C 136.444 41.392,137.344 41.060,138.216 40.837 C 140.257 40.317,143.470 39.368,145.000 38.835 C 148.457 37.631,151.282 36.800,151.922 36.800 C 152.317 36.800,152.811 36.637,153.020 36.438 C 153.364 36.110,155.349 35.501,159.784 34.364 C 160.656 34.141,161.556 33.808,161.784 33.625 C 162.013 33.442,162.830 33.171,163.600 33.023 C 164.370 32.875,165.360 32.601,165.800 32.415 C 166.240 32.228,167.950 31.678,169.600 31.192 C 175.095 29.573,177.792 28.723,178.600 28.355 C 179.381 28.000,182.186 27.177,185.400 26.361 C 186.280 26.137,187.171 25.784,187.380 25.577 C 187.589 25.370,188.039 25.203,188.380 25.206 C 189.140 25.213,194.155 23.710,195.800 22.982 C 197.384 22.281,198.493 22.278,200.086 22.971 " stroke="none" fill="#f4f4f4" fill-rule="evenodd"></path><path id="path2" d="M0.000 223.600 L 0.000 447.200 200.000 447.200 L 400.000 447.200 400.000 223.600 L 400.000 0.000 200.000 0.000 L 0.000 0.000 0.000 223.600 M200.292 14.962 C 201.121 15.271,203.150 15.922,204.800 16.409 C 206.450 16.897,208.430 17.517,209.200 17.788 C 211.677 18.661,214.563 19.518,216.000 19.809 C 216.770 19.965,217.587 20.242,217.816 20.425 C 218.044 20.608,218.944 20.940,219.816 21.163 C 221.857 21.683,225.070 22.632,226.600 23.165 C 230.057 24.369,232.882 25.200,233.522 25.200 C 233.917 25.200,234.411 25.370,234.620 25.577 C 234.829 25.784,235.720 26.137,236.600 26.361 C 239.814 27.177,242.619 28.000,243.400 28.355 C 244.166 28.704,247.542 29.770,251.800 31.009 C 256.424 32.354,259.450 33.304,260.200 33.645 C 260.981 34.000,263.786 34.823,267.000 35.639 C 267.880 35.863,268.771 36.216,268.980 36.423 C 269.189 36.630,269.639 36.797,269.980 36.794 C 270.594 36.788,274.904 38.033,277.600 38.994 C 278.370 39.269,280.080 39.808,281.400 40.191 C 282.720 40.575,284.790 41.209,286.000 41.600 C 287.210 41.991,289.280 42.625,290.600 43.009 C 291.920 43.392,293.630 43.928,294.400 44.200 C 295.170 44.472,296.880 45.008,298.200 45.391 C 299.520 45.775,301.590 46.409,302.800 46.800 C 304.010 47.191,306.080 47.835,307.400 48.230 C 308.720 48.625,311.330 49.435,313.200 50.030 C 315.070 50.625,317.950 51.513,319.600 52.003 C 321.250 52.494,323.230 53.138,324.000 53.435 C 324.770 53.732,326.077 54.091,326.904 54.233 C 327.732 54.375,328.498 54.635,328.607 54.811 C 328.715 54.986,329.518 55.251,330.390 55.398 C 333.082 55.853,333.847 56.767,334.149 59.884 C 334.294 61.378,334.588 63.860,334.802 65.400 C 335.401 69.705,336.368 84.498,336.633 93.400 C 336.931 103.451,335.602 131.848,334.639 136.000 C 334.511 136.550,334.230 138.980,334.014 141.400 C 333.303 149.385,330.235 166.952,328.181 174.800 C 327.864 176.010,327.167 178.800,326.630 181.000 C 326.094 183.200,325.474 185.540,325.253 186.200 C 325.032 186.860,324.569 188.390,324.225 189.600 C 323.686 191.496,322.000 196.677,319.801 203.200 C 319.467 204.190,319.015 205.313,318.797 205.695 C 318.579 206.077,318.400 206.597,318.400 206.851 C 318.400 207.105,318.014 208.142,317.543 209.156 C 316.505 211.391,315.923 212.746,314.819 215.500 C 313.264 219.381,308.526 229.279,306.251 233.400 C 305.766 234.280,304.925 235.810,304.384 236.800 C 303.843 237.790,302.635 239.736,301.700 241.125 C 300.765 242.514,299.995 243.774,299.989 243.925 C 299.983 244.076,299.167 245.370,298.176 246.800 C 296.545 249.152,295.393 250.821,292.335 255.260 C 291.782 256.064,290.445 257.771,289.365 259.054 C 288.284 260.337,287.269 261.570,287.109 261.794 C 281.485 269.634,265.709 284.590,255.034 292.200 C 254.416 292.640,253.706 293.180,253.456 293.400 C 252.439 294.292,249.219 296.457,245.543 298.719 C 244.364 299.444,242.320 300.734,241.000 301.586 C 239.680 302.437,236.440 304.247,233.800 305.606 C 226.310 309.463,224.931 310.135,220.400 312.139 C 219.630 312.479,218.010 313.197,216.800 313.734 C 204.916 319.011,196.797 320.659,192.400 318.689 C 191.630 318.344,189.650 317.661,188.000 317.171 C 186.350 316.681,184.829 316.127,184.620 315.940 C 184.411 315.753,183.996 315.600,183.698 315.600 C 183.204 315.600,181.959 315.102,178.000 313.322 C 177.230 312.976,176.060 312.460,175.400 312.176 C 169.312 309.557,156.322 302.721,152.453 300.100 C 151.073 299.165,149.864 298.400,149.768 298.400 C 149.671 298.400,148.695 297.770,147.600 297.000 C 146.505 296.230,145.524 295.600,145.422 295.600 C 145.259 295.600,138.648 290.706,137.315 289.599 C 137.048 289.377,136.206 288.773,135.444 288.255 C 134.681 287.738,133.801 287.064,133.486 286.758 C 133.172 286.451,131.683 285.120,130.177 283.800 C 128.671 282.480,127.149 281.130,126.795 280.800 C 126.440 280.470,125.261 279.379,124.175 278.376 C 120.162 274.668,112.118 266.085,109.464 262.677 C 107.960 260.745,106.320 258.723,105.820 258.183 C 105.319 257.644,104.394 256.437,103.763 255.501 C 103.132 254.566,101.613 252.450,100.387 250.800 C 99.161 249.150,97.667 246.990,97.067 246.000 C 96.467 245.010,95.271 243.120,94.409 241.800 C 93.547 240.480,92.595 238.950,92.293 238.400 C 88.227 230.998,86.497 227.607,83.414 221.000 C 81.090 216.019,81.030 215.883,79.991 213.200 C 79.523 211.990,78.900 210.460,78.607 209.800 C 78.314 209.140,77.677 207.520,77.191 206.200 C 76.706 204.880,76.059 203.209,75.754 202.486 C 75.449 201.764,75.200 200.853,75.200 200.463 C 75.200 200.072,74.936 199.404,74.613 198.976 C 74.290 198.549,74.019 197.840,74.010 197.400 C 74.002 196.960,73.726 196.084,73.398 195.454 C 73.069 194.824,72.800 194.060,72.800 193.756 C 72.800 193.452,72.467 192.167,72.060 190.902 C 71.366 188.743,70.731 186.579,69.388 181.800 C 69.078 180.700,68.630 178.900,68.391 177.800 C 67.402 173.243,66.828 170.926,66.426 169.868 C 66.192 169.252,66.000 168.290,66.000 167.731 C 66.000 167.172,65.741 165.519,65.424 164.057 C 64.285 158.806,63.576 154.949,63.208 152.000 C 63.002 150.350,62.657 147.740,62.440 146.200 C 59.105 122.446,58.662 84.036,61.474 62.400 C 62.248 56.444,62.272 56.411,66.712 55.010 C 68.630 54.405,70.920 53.674,71.800 53.386 C 72.680 53.097,73.983 52.743,74.695 52.600 C 75.408 52.456,76.094 52.172,76.219 51.969 C 76.345 51.766,76.792 51.600,77.213 51.600 C 77.634 51.600,79.918 50.968,82.289 50.195 C 84.660 49.423,87.590 48.505,88.800 48.156 C 90.010 47.807,91.541 47.293,92.202 47.014 C 92.862 46.735,94.032 46.383,94.802 46.232 C 95.571 46.081,96.830 45.721,97.600 45.432 C 98.370 45.143,99.990 44.618,101.200 44.267 C 105.816 42.925,109.046 41.886,110.260 41.353 C 110.954 41.049,111.740 40.800,112.007 40.800 C 112.481 40.800,115.186 39.981,118.000 38.986 C 118.770 38.714,120.840 38.089,122.600 37.597 C 124.360 37.106,126.160 36.543,126.600 36.347 C 127.380 36.000,130.189 35.178,133.384 34.363 C 134.256 34.140,135.156 33.808,135.384 33.625 C 135.613 33.442,136.430 33.171,137.200 33.023 C 137.970 32.875,138.960 32.603,139.400 32.418 C 140.724 31.863,145.581 30.400,146.108 30.398 C 146.379 30.396,147.067 30.152,147.637 29.854 C 148.208 29.556,149.378 29.181,150.237 29.021 C 151.097 28.860,151.980 28.584,152.200 28.406 C 152.566 28.112,154.855 27.423,158.984 26.364 C 159.856 26.141,160.756 25.808,160.984 25.624 C 161.213 25.441,162.164 25.164,163.098 25.010 C 164.032 24.856,164.885 24.586,164.993 24.411 C 165.102 24.235,165.868 23.975,166.696 23.833 C 167.523 23.691,168.830 23.337,169.600 23.047 C 171.911 22.175,175.075 21.200,175.593 21.200 C 175.860 21.200,176.646 20.947,177.340 20.637 C 178.721 20.020,183.912 18.400,184.507 18.400 C 184.712 18.400,185.446 18.148,186.140 17.841 C 186.833 17.534,189.069 16.820,191.110 16.255 C 193.150 15.691,195.130 15.048,195.510 14.826 C 196.496 14.252,198.541 14.309,200.292 14.962 M195.800 23.195 C 195.360 23.382,193.650 23.931,192.000 24.415 C 190.350 24.899,188.370 25.517,187.600 25.788 C 185.201 26.634,182.256 27.514,180.873 27.801 C 180.143 27.952,179.063 28.327,178.473 28.635 C 177.883 28.943,177.154 29.196,176.854 29.198 C 176.342 29.200,174.049 29.883,170.800 31.000 C 169.350 31.499,167.520 32.066,162.400 33.604 C 160.750 34.099,158.721 34.751,157.892 35.052 C 157.062 35.354,156.100 35.600,155.752 35.600 C 155.405 35.600,154.554 35.854,153.860 36.165 C 152.646 36.710,148.179 38.092,145.896 38.629 C 145.289 38.772,144.694 39.049,144.573 39.244 C 144.452 39.440,144.034 39.600,143.644 39.600 C 142.779 39.600,137.875 41.062,136.140 41.837 C 135.446 42.147,134.595 42.400,134.248 42.400 C 133.900 42.400,132.938 42.641,132.108 42.936 C 130.497 43.508,128.402 44.164,123.600 45.599 C 121.950 46.092,119.970 46.720,119.200 46.994 C 118.430 47.269,116.720 47.808,115.400 48.191 C 114.080 48.575,112.010 49.209,110.800 49.600 C 109.590 49.991,107.520 50.625,106.200 51.009 C 104.880 51.392,103.170 51.931,102.400 52.206 C 101.630 52.480,99.650 53.108,98.000 53.601 C 92.968 55.104,91.061 55.697,89.600 56.212 C 88.830 56.483,86.850 57.103,85.200 57.589 C 83.550 58.075,81.750 58.621,81.200 58.802 C 80.650 58.982,77.829 59.880,74.930 60.797 C 68.789 62.741,69.254 62.108,68.755 69.200 C 68.545 72.170,68.202 76.130,67.990 78.000 C 67.483 82.493,67.489 117.008,67.998 121.716 C 68.217 123.742,68.571 128.010,68.785 131.200 C 68.999 134.390,69.352 137.990,69.570 139.200 C 69.788 140.410,70.169 143.110,70.418 145.200 C 71.414 153.575,71.468 153.900,73.464 163.600 C 73.804 165.250,74.255 167.320,74.467 168.200 C 75.003 170.432,75.857 174.129,76.544 177.200 C 76.864 178.630,77.307 180.340,77.529 181.000 C 77.750 181.660,78.211 183.190,78.552 184.400 C 79.785 188.768,80.878 192.225,81.433 193.514 C 81.745 194.236,82.000 195.147,82.000 195.537 C 82.000 195.928,82.264 196.596,82.587 197.024 C 82.910 197.451,83.180 198.116,83.187 198.503 C 83.199 199.149,85.330 204.970,86.592 207.800 C 86.886 208.460,87.445 209.810,87.834 210.800 C 88.708 213.023,89.699 215.309,91.477 219.200 C 93.520 223.671,94.047 224.717,95.805 227.792 C 96.688 229.336,97.635 231.050,97.909 231.600 C 98.184 232.150,98.758 233.140,99.185 233.800 C 99.612 234.460,100.195 235.393,100.481 235.874 C 102.081 238.566,105.083 243.438,105.600 244.184 C 105.930 244.659,106.740 245.850,107.400 246.829 C 109.016 249.227,113.604 255.302,114.175 255.800 C 114.427 256.020,115.703 257.550,117.011 259.200 C 120.289 263.337,131.220 274.367,135.641 278.000 C 137.649 279.650,139.496 281.188,139.746 281.418 C 139.996 281.648,141.638 282.896,143.396 284.192 C 145.153 285.487,146.773 286.700,146.996 286.886 C 148.220 287.911,151.955 290.449,154.813 292.200 C 156.608 293.300,158.296 294.404,158.562 294.652 C 158.829 294.901,161.197 296.236,163.824 297.618 C 171.197 301.499,172.416 302.114,175.204 303.361 C 176.632 304.000,178.880 305.015,180.200 305.615 C 190.142 310.141,197.919 312.166,200.713 310.956 C 201.531 310.601,202.740 310.167,203.400 309.991 C 205.569 309.411,211.721 307.107,214.800 305.721 C 221.351 302.771,222.962 302.009,226.994 299.946 C 234.894 295.906,235.760 295.426,239.000 293.297 C 240.760 292.141,242.380 291.055,242.600 290.885 C 242.820 290.714,243.720 290.140,244.600 289.608 C 246.177 288.655,250.854 285.294,251.976 284.307 C 252.700 283.670,254.442 282.385,255.645 281.600 C 256.150 281.270,257.472 280.185,258.582 279.188 C 259.692 278.192,261.860 276.305,263.400 274.995 C 267.161 271.795,274.722 264.098,277.735 260.400 C 279.080 258.750,280.389 257.220,280.645 257.000 C 281.250 256.479,289.515 245.475,290.860 243.400 C 294.895 237.173,297.871 232.318,298.438 231.039 C 298.643 230.577,299.191 229.570,299.657 228.800 C 301.063 226.478,302.945 222.629,306.796 214.200 C 307.199 213.320,308.184 210.980,308.986 209.000 C 309.789 207.020,310.610 205.040,310.812 204.600 C 311.013 204.160,311.455 202.990,311.793 202.000 C 313.535 196.899,315.691 190.350,316.270 188.400 C 316.629 187.190,317.153 185.480,317.435 184.600 C 318.467 181.368,319.972 175.395,321.364 169.000 C 322.517 163.707,322.809 162.054,324.363 152.000 C 324.618 150.350,325.087 147.380,325.404 145.400 C 328.648 125.157,329.323 85.573,326.755 66.117 C 326.210 61.984,327.344 62.665,314.400 58.702 C 312.970 58.264,311.080 57.680,310.200 57.404 C 309.320 57.128,307.520 56.590,306.200 56.207 C 304.880 55.825,303.170 55.277,302.400 54.990 C 301.630 54.702,300.010 54.176,298.800 53.819 C 293.516 52.263,290.748 51.415,287.000 50.201 C 284.800 49.489,281.920 48.590,280.600 48.204 C 279.280 47.818,277.609 47.255,276.886 46.951 C 276.164 46.648,275.354 46.403,275.086 46.406 C 274.457 46.413,269.372 44.848,267.740 44.144 C 267.046 43.845,266.236 43.601,265.940 43.602 C 265.643 43.603,264.500 43.310,263.400 42.950 C 259.428 41.651,256.956 40.876,254.600 40.191 C 253.280 39.808,251.570 39.269,250.800 38.994 C 250.030 38.720,248.050 38.101,246.400 37.619 C 244.750 37.137,242.809 36.486,242.086 36.172 C 241.364 35.857,240.374 35.594,239.886 35.586 C 239.399 35.578,238.550 35.314,238.000 35.000 C 237.450 34.686,236.601 34.422,236.114 34.414 C 235.626 34.406,234.636 34.143,233.914 33.828 C 233.191 33.514,231.250 32.865,229.600 32.385 C 227.950 31.906,226.009 31.263,225.286 30.957 C 224.564 30.651,223.625 30.400,223.200 30.400 C 222.775 30.400,221.836 30.155,221.114 29.855 C 219.825 29.320,218.833 29.004,212.800 27.201 C 211.150 26.708,209.170 26.080,208.400 25.806 C 207.630 25.531,205.920 24.993,204.600 24.611 C 203.280 24.229,201.474 23.665,200.587 23.358 C 198.796 22.739,197.014 22.678,195.800 23.195 M208.800 73.211 C 208.800 73.672,204.295 76.560,201.418 77.944 C 195.878 80.609,191.674 81.451,177.200 82.795 C 163.234 84.091,156.948 85.229,150.600 87.613 C 149.853 87.893,149.870 87.941,150.858 88.331 C 151.440 88.560,151.987 88.962,152.074 89.222 C 152.181 89.542,153.010 89.306,154.616 88.502 C 158.070 86.771,175.171 85.098,180.900 85.931 C 182.388 86.147,182.288 86.678,180.700 86.998 C 179.985 87.142,178.860 87.501,178.200 87.797 C 177.540 88.092,176.323 88.459,175.496 88.612 C 174.668 88.765,173.893 89.050,173.772 89.245 C 173.651 89.440,173.158 89.600,172.676 89.600 C 171.698 89.600,167.213 90.999,165.468 91.849 C 164.845 92.152,164.125 92.402,163.868 92.403 C 161.501 92.421,153.957 97.530,153.063 99.722 L 152.562 100.950 151.643 99.660 C 150.566 98.147,150.193 92.849,151.100 91.941 C 151.697 91.343,151.766 90.000,151.200 90.000 C 150.980 90.000,150.800 90.251,150.800 90.559 C 150.800 91.312,148.227 93.528,146.993 93.838 C 145.614 94.184,145.753 94.656,147.392 95.197 C 148.561 95.583,148.853 95.926,149.211 97.328 C 149.446 98.248,149.823 99.476,150.050 100.058 C 150.663 101.630,150.228 111.656,149.402 115.000 C 149.022 116.540,148.686 118.513,148.655 119.384 L 148.600 120.967 151.800 121.829 C 153.560 122.303,156.440 122.999,158.200 123.375 C 161.485 124.079,164.535 124.831,168.400 125.892 C 171.560 126.759,180.128 129.645,180.600 130.001 C 180.820 130.166,181.450 130.440,182.000 130.610 C 183.973 131.216,189.600 134.031,189.600 134.411 C 189.600 134.625,189.949 134.800,190.376 134.800 C 190.803 134.800,191.280 135.006,191.436 135.258 C 191.637 135.583,191.383 135.636,190.559 135.439 C 189.922 135.286,188.140 134.910,186.600 134.603 C 180.791 133.444,178.145 132.890,176.400 132.468 C 153.515 126.939,125.185 128.575,116.704 135.917 C 113.585 138.617,109.600 143.739,109.600 145.048 C 109.600 145.298,109.342 145.717,109.026 145.979 C 108.710 146.241,108.336 146.983,108.194 147.628 C 107.779 149.519,107.200 148.975,107.205 146.700 C 107.227 138.044,111.355 125.785,115.900 120.882 C 116.175 120.586,116.401 120.221,116.403 120.071 C 116.417 118.568,128.446 108.400,130.210 108.400 C 130.855 108.400,132.000 110.382,132.000 111.499 C 132.000 111.905,132.315 112.652,132.700 113.158 C 134.503 115.531,135.156 116.176,135.454 115.878 C 135.632 115.701,135.545 115.413,135.262 115.238 C 133.697 114.271,132.873 111.077,132.415 104.200 C 132.239 101.560,131.968 99.093,131.811 98.717 C 131.592 98.188,131.785 97.980,132.664 97.798 C 133.289 97.669,134.880 97.304,136.200 96.987 C 137.520 96.670,139.547 96.295,140.704 96.153 C 142.645 95.916,142.919 95.745,144.234 93.953 C 145.019 92.885,146.097 91.667,146.630 91.248 C 147.164 90.828,147.600 90.286,147.600 90.042 C 147.600 89.799,147.949 89.600,148.376 89.600 C 149.282 89.600,149.800 88.971,149.199 88.600 C 148.972 88.459,148.146 88.739,147.363 89.223 C 144.817 90.796,144.740 89.550,147.237 87.181 C 157.278 77.654,166.161 74.981,189.000 74.611 C 197.555 74.473,204.988 73.850,205.800 73.204 C 206.720 72.473,208.800 72.478,208.800 73.211 M220.200 75.845 C 221.300 76.202,222.791 76.743,223.514 77.047 C 224.236 77.351,225.147 77.600,225.537 77.600 C 225.928 77.600,226.585 77.847,226.998 78.149 C 228.053 78.921,226.797 79.286,222.600 79.429 C 217.799 79.593,218.101 79.548,218.800 80.000 C 219.130 80.213,219.822 80.391,220.338 80.394 C 220.854 80.397,221.754 80.658,222.338 80.973 C 222.922 81.287,224.210 81.901,225.200 82.335 C 226.190 82.769,228.170 83.663,229.600 84.320 C 239.862 89.039,248.910 90.907,253.343 89.222 C 257.405 87.677,253.497 94.811,249.168 96.842 C 237.972 102.096,230.327 101.504,217.634 94.401 C 216.443 93.734,215.273 93.042,215.034 92.862 C 212.407 90.882,207.269 89.460,202.700 89.449 C 197.127 89.435,197.192 89.591,201.100 85.641 C 204.772 81.929,209.113 79.645,213.800 78.958 C 215.669 78.684,215.722 78.646,214.600 78.380 C 212.707 77.930,208.426 77.958,207.553 78.425 C 207.116 78.659,206.363 78.781,205.879 78.695 C 205.025 78.545,205.022 78.531,205.800 78.195 C 206.240 78.005,206.798 77.586,207.039 77.264 C 208.468 75.358,216.149 74.530,220.200 75.845 M196.400 86.400 C 196.400 86.620,196.130 86.800,195.800 86.800 C 195.470 86.800,195.200 87.049,195.200 87.354 C 195.200 88.400,188.516 92.231,183.200 94.233 C 181.770 94.772,180.015 95.480,179.300 95.806 C 178.585 96.133,177.415 96.644,176.700 96.942 C 175.437 97.468,169.401 100.430,167.288 101.560 C 164.337 103.138,159.635 109.122,159.609 111.333 C 159.580 113.712,157.221 108.541,157.206 106.066 C 157.189 103.447,158.598 99.938,160.539 97.759 C 162.488 95.573,163.007 95.223,167.471 93.084 C 168.752 92.471,170.113 91.796,170.495 91.584 C 170.877 91.373,171.455 91.200,171.781 91.200 C 172.106 91.200,173.229 90.909,174.277 90.553 C 176.486 89.803,178.667 89.437,185.671 88.638 C 188.460 88.319,191.103 87.866,191.545 87.630 C 191.986 87.393,192.775 87.200,193.297 87.200 C 193.820 87.200,194.596 86.936,195.024 86.613 C 195.941 85.919,196.400 85.848,196.400 86.400 M201.531 94.541 C 202.804 95.058,205.146 96.363,206.735 97.441 C 208.324 98.518,210.156 99.691,210.807 100.047 C 211.458 100.403,212.218 100.882,212.495 101.111 C 212.773 101.341,213.663 101.652,214.473 101.804 C 216.535 102.189,215.914 103.784,213.556 104.161 C 210.955 104.576,203.545 102.767,200.894 101.070 C 196.777 98.432,187.730 98.838,182.306 101.904 C 178.815 103.876,178.442 102.710,181.459 99.261 C 186.104 93.951,194.957 91.869,201.531 94.541 M258.499 98.490 C 260.644 98.990,262.399 99.515,262.399 99.655 C 262.401 100.199,258.550 100.442,254.179 100.173 C 249.364 99.877,249.048 99.758,250.500 98.796 C 252.704 97.336,253.434 97.308,258.499 98.490 M225.399 101.158 C 229.968 103.362,236.086 103.605,247.000 102.017 C 255.100 100.838,261.944 101.778,266.972 104.760 C 273.420 108.584,280.070 117.776,281.082 124.265 C 281.350 125.981,280.629 127.367,280.199 125.965 C 279.921 125.061,278.068 122.561,276.215 120.591 C 274.390 118.652,269.995 116.092,265.400 114.293 C 260.408 112.339,254.540 111.370,244.400 110.825 C 232.066 110.161,227.676 108.497,223.543 102.917 C 222.166 101.059,221.493 99.301,222.300 99.671 C 222.465 99.747,223.859 100.416,225.399 101.158 M129.933 101.100 C 131.177 103.509,130.441 106.800,128.658 106.800 C 127.150 106.800,117.368 115.188,114.593 118.862 C 108.844 126.472,106.008 134.495,105.707 144.000 C 105.503 150.463,105.275 151.156,104.096 148.895 C 100.428 141.856,101.892 126.973,107.156 117.800 C 113.216 107.240,127.642 96.663,129.933 101.100 M195.886 102.244 C 196.719 102.599,197.950 103.148,198.621 103.465 C 199.893 104.065,206.267 108.056,207.048 108.741 C 207.294 108.957,208.627 109.664,210.010 110.312 L 212.526 111.491 209.814 113.007 C 208.322 113.841,205.819 115.643,204.251 117.010 C 198.799 121.764,191.267 123.362,190.197 119.990 C 190.071 119.592,189.480 119.092,188.884 118.877 C 186.051 117.859,183.600 114.273,183.600 111.148 C 183.600 108.257,183.303 107.764,182.191 108.808 C 180.940 109.984,180.525 109.137,181.547 107.493 C 184.559 102.643,191.153 100.229,195.886 102.244 M173.915 106.910 C 172.840 112.036,174.760 118.392,178.500 122.087 C 181.480 125.030,177.074 124.437,172.650 121.299 C 167.331 117.528,167.174 110.603,172.288 105.337 C 174.064 103.508,174.534 103.961,173.915 106.910 M189.334 107.830 C 187.959 109.204,188.136 112.487,189.647 113.649 C 193.416 116.548,198.277 110.862,194.678 107.765 C 193.103 106.411,190.724 106.440,189.334 107.830 M202.270 109.863 C 202.122 110.012,202.000 110.481,202.000 110.906 C 202.000 111.672,201.296 113.531,200.163 115.754 C 199.383 117.286,199.688 117.477,201.199 116.401 C 202.507 115.469,204.400 112.795,204.400 111.878 C 204.400 111.185,202.626 109.507,202.270 109.863 M137.600 110.967 C 137.600 112.651,141.399 114.406,141.884 112.948 C 141.967 112.699,141.622 112.390,141.117 112.260 C 140.613 112.131,139.713 111.569,139.117 111.012 C 137.776 109.758,137.600 109.753,137.600 110.967 M231.200 112.157 C 231.200 112.849,230.918 113.184,230.177 113.370 C 228.727 113.734,225.433 116.115,222.438 118.963 C 221.028 120.303,219.536 121.723,219.120 122.118 C 218.119 123.068,212.709 126.800,212.331 126.800 C 212.168 126.800,211.166 127.313,210.103 127.939 C 202.406 132.478,194.826 132.106,187.710 126.842 C 184.180 124.231,184.491 123.221,188.400 124.600 C 193.712 126.474,200.162 124.515,210.000 118.037 C 215.558 114.378,215.930 114.149,217.200 113.609 C 217.750 113.375,218.560 113.012,219.000 112.803 C 222.746 111.022,231.200 110.574,231.200 112.157 M255.214 115.651 C 263.315 117.700,272.500 123.786,274.634 128.519 C 274.952 129.224,275.373 130.070,275.569 130.400 C 275.960 131.056,277.787 135.616,279.175 139.400 C 279.659 140.720,280.223 142.070,280.428 142.400 C 280.634 142.730,280.993 143.448,281.227 143.995 C 281.672 145.037,283.702 147.933,284.900 149.238 C 285.683 150.090,285.306 150.192,283.428 149.637 C 282.753 149.437,281.120 148.957,279.800 148.569 C 275.018 147.165,270.094 142.731,268.001 137.944 C 267.774 137.425,267.233 136.460,266.798 135.800 C 266.364 135.140,265.790 134.150,265.523 133.600 C 264.657 131.814,261.112 127.465,258.223 124.643 C 254.101 120.617,249.300 117.639,244.800 116.316 C 244.030 116.089,243.135 115.826,242.811 115.731 C 238.878 114.571,250.644 114.496,255.214 115.651 M240.050 118.827 C 240.799 119.228,240.755 119.320,239.323 120.360 C 237.151 121.938,233.613 125.871,231.486 129.071 C 228.773 133.151,226.611 134.933,222.513 136.467 C 218.139 138.104,205.180 137.351,200.600 135.193 C 200.160 134.986,199.260 134.601,198.600 134.338 C 197.477 133.891,197.618 133.839,200.800 133.536 C 204.076 133.223,210.266 131.874,211.569 131.189 C 211.916 131.006,213.100 130.450,214.200 129.952 C 216.235 129.031,219.188 127.114,221.459 125.239 C 225.805 121.651,230.575 119.116,233.800 118.682 C 236.291 118.346,239.281 118.415,240.050 118.827 M251.600 126.449 C 253.429 127.391,255.034 128.901,261.317 135.588 C 265.337 139.868,265.317 140.136,261.000 139.867 C 258.186 139.692,256.215 138.996,251.135 136.384 C 245.541 133.508,243.768 133.034,238.700 133.065 C 233.192 133.097,233.255 133.189,236.629 130.033 C 242.041 124.970,246.608 123.876,251.600 126.449 M160.800 133.631 C 166.783 134.298,172.096 135.124,176.000 135.994 C 178.090 136.459,181.046 137.010,182.568 137.218 C 184.471 137.477,185.570 137.846,186.084 138.398 C 187.002 139.383,186.344 139.412,176.562 138.806 C 162.440 137.932,163.197 137.938,163.229 138.704 C 163.250 139.192,165.168 140.359,169.629 142.599 C 173.133 144.359,176.000 145.934,176.000 146.099 C 176.000 146.265,176.338 146.400,176.751 146.400 C 177.164 146.400,177.726 146.670,178.000 147.000 C 178.672 147.810,176.578 147.835,174.714 147.039 C 173.991 146.731,172.320 146.162,171.000 145.776 C 169.680 145.390,167.648 144.742,166.485 144.337 C 165.322 143.931,163.937 143.600,163.409 143.600 C 162.880 143.600,162.336 143.420,162.200 143.200 C 162.064 142.980,161.053 142.800,159.953 142.800 C 158.721 142.800,158.048 142.954,158.200 143.200 C 158.336 143.420,159.144 143.600,159.995 143.600 C 160.846 143.600,161.804 143.861,162.123 144.180 C 162.442 144.499,163.176 144.879,163.753 145.024 C 166.938 145.823,169.994 148.098,175.501 153.768 C 178.197 156.543,181.018 159.108,181.770 159.466 C 184.214 160.632,183.947 161.638,181.262 161.383 C 177.032 160.980,176.107 160.808,174.953 160.206 C 174.319 159.876,173.585 159.604,173.321 159.602 C 172.690 159.599,168.189 156.977,166.342 155.537 C 163.295 153.160,163.389 154.086,166.897 160.964 C 167.827 162.788,168.916 167.784,169.433 172.600 C 170.102 178.841,170.115 179.318,169.600 179.000 C 169.380 178.864,169.200 178.198,169.200 177.520 C 169.200 176.843,168.953 176.088,168.652 175.844 C 168.351 175.600,167.914 174.680,167.681 173.800 C 165.831 166.806,162.458 161.477,157.665 157.975 C 156.931 157.439,156.121 156.818,155.865 156.595 C 155.609 156.372,154.230 155.264,152.800 154.134 C 150.138 152.028,147.600 149.407,147.600 148.761 C 147.600 148.563,147.420 148.400,147.200 148.400 C 146.294 148.400,146.902 150.652,148.400 152.847 C 150.207 155.495,150.244 155.600,149.363 155.600 C 147.268 155.600,140.500 148.689,138.518 144.526 C 136.855 141.031,136.855 141.031,144.005 140.800 C 147.623 140.683,149.784 140.477,149.200 140.305 C 147.622 139.841,126.345 139.952,122.148 140.447 C 117.976 140.939,117.703 140.877,118.472 139.608 C 121.406 134.774,143.319 131.679,160.800 133.631 M250.035 139.780 C 253.646 140.337,254.643 140.596,258.200 141.900 C 267.209 145.205,273.017 150.447,276.410 158.335 C 277.648 161.213,277.069 161.585,274.976 159.257 C 273.270 157.361,267.620 153.200,266.750 153.200 C 266.515 153.200,265.846 152.932,265.262 152.605 C 260.372 149.867,249.174 148.006,237.600 148.007 C 224.008 148.008,214.242 146.579,209.894 143.952 C 208.846 143.318,207.822 142.800,207.619 142.800 C 207.416 142.800,206.695 142.293,206.017 141.674 C 204.715 140.485,204.762 139.738,206.094 140.450 C 206.528 140.682,207.899 141.028,209.141 141.218 C 210.384 141.408,212.382 141.731,213.582 141.935 C 215.769 142.307,218.848 142.036,229.200 140.557 C 238.569 139.219,244.869 138.984,250.035 139.780 M151.828 141.555 C 151.541 142.019,152.976 142.388,155.100 142.395 C 156.918 142.400,157.385 141.850,155.900 141.452 C 154.548 141.090,152.077 141.152,151.828 141.555 M186.943 141.804 C 192.300 142.689,195.963 143.544,198.000 144.386 C 198.990 144.795,201.420 145.789,203.400 146.594 C 207.062 148.084,208.852 148.837,211.000 149.793 C 211.660 150.086,213.010 150.629,214.000 151.000 C 214.990 151.371,216.355 151.939,217.033 152.264 C 218.922 153.168,222.627 154.053,227.200 154.692 L 229.400 155.000 227.040 155.909 C 219.735 158.724,201.875 157.005,194.135 152.742 C 192.851 152.035,191.260 151.165,190.600 150.810 C 189.940 150.454,188.649 149.684,187.732 149.097 C 184.877 147.272,176.115 142.889,174.724 142.590 C 168.774 141.313,179.712 140.610,186.943 141.804 M180.600 148.400 C 180.740 148.627,180.404 148.800,179.824 148.800 C 179.261 148.800,178.800 148.620,178.800 148.400 C 178.800 148.180,179.149 148.000,179.576 148.000 C 180.003 148.000,180.464 148.180,180.600 148.400 M280.027 152.827 C 281.176 153.976,282.012 156.469,282.427 159.984 C 282.806 163.187,283.818 166.582,284.721 167.675 C 285.450 168.558,285.034 169.182,283.900 168.906 C 281.320 168.278,280.004 165.370,279.990 160.267 C 279.982 156.935,279.797 155.585,278.980 152.900 C 278.640 151.780,278.958 151.758,280.027 152.827 M261.685 154.411 C 267.492 157.292,271.554 163.073,273.836 171.706 C 277.057 183.893,280.469 193.254,282.045 194.228 C 282.247 194.353,282.318 194.609,282.202 194.797 C 281.161 196.481,271.808 187.072,269.095 181.613 C 268.928 181.276,268.435 180.460,268.000 179.800 C 267.565 179.140,267.083 178.330,266.929 178.000 C 263.405 170.454,255.794 160.379,251.957 158.183 C 250.036 157.083,246.973 155.698,245.900 155.445 C 244.270 155.060,244.404 153.702,246.100 153.420 C 251.817 152.467,258.642 152.901,261.685 154.411 M185.317 153.663 C 185.792 153.917,186.725 154.266,187.391 154.438 C 188.949 154.841,195.558 157.103,196.600 157.590 C 197.040 157.796,198.570 158.439,200.000 159.019 C 201.430 159.599,202.771 160.238,202.980 160.437 C 203.189 160.637,203.593 160.800,203.879 160.800 C 209.248 160.800,221.838 172.301,226.431 181.400 C 227.098 182.720,227.804 184.070,228.000 184.400 C 229.944 187.662,231.925 194.892,232.588 201.142 C 233.131 206.257,232.618 217.876,231.791 219.215 C 231.563 219.583,230.724 224.373,229.935 229.800 C 229.402 233.468,229.750 239.768,230.594 241.753 C 231.516 243.919,230.892 244.363,228.930 242.935 C 225.587 240.503,222.614 236.123,221.642 232.200 C 221.424 231.320,221.047 229.880,220.805 229.000 C 220.552 228.081,220.277 222.037,220.158 214.800 C 219.964 202.970,219.351 195.434,218.439 193.641 C 218.259 193.288,218.001 192.410,217.864 191.690 C 217.338 188.916,213.566 181.990,210.516 178.200 C 210.339 177.980,209.220 176.566,208.029 175.058 C 206.839 173.550,204.860 171.479,203.632 170.455 C 201.043 168.295,198.951 166.467,198.040 165.568 C 197.688 165.220,195.893 163.800,194.052 162.413 C 192.210 161.026,189.856 159.150,188.820 158.245 C 187.783 157.340,186.191 155.988,185.281 155.240 C 183.308 153.618,183.331 152.599,185.317 153.663 M239.725 160.634 C 243.282 161.720,249.193 164.569,250.000 165.586 C 250.110 165.725,250.830 166.271,251.600 166.800 C 254.918 169.079,262.212 177.656,263.845 181.200 C 263.997 181.530,264.346 182.070,264.621 182.400 C 264.895 182.730,265.633 183.925,266.260 185.056 C 268.586 189.252,269.817 191.112,273.301 195.697 C 276.576 200.007,280.011 203.600,280.856 203.600 C 281.045 203.600,281.200 203.780,281.200 204.000 C 281.200 205.164,274.412 204.042,271.075 202.325 C 265.093 199.249,261.416 196.199,257.485 191.051 C 256.118 189.262,254.820 187.500,254.600 187.136 C 254.380 186.773,253.006 184.703,251.547 182.538 C 249.215 179.077,248.105 177.557,244.359 172.701 C 241.280 168.709,234.181 162.762,231.773 162.157 C 230.716 161.892,230.523 161.237,231.280 160.480 C 231.975 159.785,237.259 159.881,239.725 160.634 M217.781 161.569 C 217.906 161.772,218.592 162.063,219.305 162.215 C 220.017 162.368,221.050 162.713,221.600 162.983 C 237.670 170.865,244.721 177.828,251.187 192.200 C 253.874 198.170,254.974 200.027,257.864 203.464 C 258.819 204.599,259.600 205.713,259.600 205.939 C 259.600 207.441,249.328 203.570,246.544 201.018 C 246.294 200.788,245.577 200.240,244.951 199.800 C 240.805 196.886,234.830 189.117,230.371 180.844 C 229.584 179.385,228.165 176.753,227.216 174.996 C 226.267 173.238,225.246 171.516,224.946 171.169 C 224.646 170.821,224.398 170.371,224.396 170.169 C 224.392 169.674,220.747 165.440,219.220 164.155 C 218.549 163.591,218.000 162.875,218.000 162.564 C 218.000 162.254,217.629 162.000,217.176 162.000 C 216.723 162.000,216.464 161.820,216.600 161.600 C 216.910 161.099,217.481 161.084,217.781 161.569 M176.093 168.311 C 178.106 172.129,178.348 172.631,178.927 174.200 C 180.780 179.224,181.001 180.794,180.980 188.800 C 180.960 196.502,180.822 197.692,179.130 204.800 C 178.894 205.790,178.527 207.500,178.315 208.600 C 178.103 209.700,177.790 210.780,177.620 211.000 C 177.450 211.220,177.189 211.940,177.041 212.600 C 176.893 213.260,176.518 214.340,176.206 215.000 C 175.096 217.354,173.229 222.439,172.971 223.812 C 172.563 225.991,172.133 225.812,171.268 223.103 C 168.593 214.718,168.916 202.895,172.228 188.000 C 174.018 179.952,173.983 169.606,172.154 165.672 C 170.264 161.609,173.814 163.987,176.093 168.311 M157.200 167.769 C 157.200 169.816,157.003 172.460,156.763 173.645 C 155.484 179.940,155.228 181.165,154.803 183.000 C 154.549 184.100,154.084 185.567,153.770 186.260 C 153.457 186.954,153.200 187.802,153.200 188.146 C 153.200 188.777,152.052 191.943,150.982 194.260 C 150.662 194.954,150.400 195.626,150.400 195.755 C 150.400 196.142,146.037 204.909,145.202 206.200 C 144.775 206.860,144.174 207.940,143.866 208.600 C 143.558 209.260,142.474 210.880,141.456 212.200 C 140.439 213.520,139.200 215.127,138.703 215.772 C 138.207 216.416,135.038 219.746,131.663 223.172 C 128.288 226.597,124.793 230.440,123.897 231.711 C 123.001 232.983,122.073 233.954,121.834 233.871 C 121.308 233.687,121.496 230.541,122.100 229.412 C 122.334 228.976,122.666 228.075,122.837 227.409 C 123.184 226.066,125.583 219.274,126.372 217.400 C 126.650 216.740,127.110 215.660,127.395 215.000 C 127.680 214.340,128.308 212.810,128.792 211.600 C 130.911 206.300,138.111 192.542,142.600 185.213 C 143.700 183.417,144.784 181.645,145.008 181.274 C 145.638 180.235,147.539 177.252,149.262 174.600 C 157.481 161.951,157.200 162.193,157.200 167.769 M181.000 165.612 C 181.440 165.810,183.060 166.415,184.600 166.956 C 191.221 169.279,194.853 170.950,199.200 173.670 C 201.875 175.345,206.437 179.105,207.731 180.702 C 208.133 181.198,208.701 181.844,208.994 182.137 C 210.497 183.639,214.000 190.051,214.000 191.298 C 214.000 191.596,214.177 192.017,214.394 192.234 C 216.657 194.497,216.384 213.557,214.024 218.162 C 213.114 219.936,212.970 219.720,212.639 216.092 C 212.419 213.677,210.500 207.267,209.379 205.200 C 209.080 204.650,208.362 203.210,207.784 202.000 C 205.604 197.443,198.191 186.585,196.041 184.800 C 195.908 184.690,194.908 183.520,193.817 182.200 C 192.726 180.880,188.701 176.620,184.873 172.733 C 177.435 165.180,176.585 163.617,181.000 165.612 M163.990 170.000 C 167.681 176.947,168.818 183.963,168.016 194.848 C 167.767 198.232,167.317 202.170,167.017 203.600 C 166.373 206.664,165.720 210.635,165.174 214.800 C 164.958 216.450,164.610 218.250,164.401 218.800 C 164.191 219.350,163.815 221.330,163.564 223.200 C 163.314 225.070,162.964 227.590,162.788 228.800 C 162.205 232.801,162.341 244.404,163.000 246.935 C 163.945 250.563,163.583 252.126,162.322 249.864 C 160.168 246.000,157.201 239.411,157.198 238.486 C 157.196 238.109,156.933 237.297,156.612 236.683 C 156.292 236.069,155.920 234.899,155.786 234.083 C 155.652 233.267,155.290 231.430,154.981 230.000 C 151.696 214.808,153.517 195.289,160.428 171.600 C 160.909 169.950,161.372 168.355,161.457 168.054 C 161.691 167.220,163.079 168.287,163.990 170.000 M277.438 169.600 C 277.758 169.600,278.198 170.068,278.415 170.640 C 278.999 172.176,281.437 175.749,284.530 179.600 C 289.215 185.435,291.988 192.239,291.033 195.557 C 290.931 195.911,290.642 196.996,290.390 197.969 C 289.867 199.988,289.226 199.576,289.193 197.200 C 289.182 196.430,288.825 195.080,288.400 194.200 C 287.975 193.320,287.621 192.446,287.614 192.258 C 287.606 192.070,287.029 191.080,286.331 190.058 C 281.311 182.704,280.043 180.666,278.912 178.133 C 277.542 175.064,276.366 170.631,276.454 168.875 C 276.502 167.932,276.530 167.911,276.682 168.700 C 276.778 169.195,277.118 169.600,277.438 169.600 M183.337 174.300 C 184.130 175.125,185.339 176.430,186.025 177.200 C 187.508 178.865,191.994 185.518,193.337 188.044 C 193.860 189.026,194.481 190.184,194.719 190.615 C 198.220 196.987,199.380 201.980,199.383 210.688 C 199.385 219.539,198.264 221.528,196.839 215.200 C 196.213 212.423,195.374 210.925,189.906 202.828 C 189.524 202.262,189.026 201.440,188.799 201.000 C 188.572 200.560,187.985 199.480,187.493 198.600 C 185.362 194.782,183.815 189.241,183.419 184.000 C 183.167 180.665,182.163 175.377,181.579 174.305 C 180.515 172.355,181.466 172.352,183.337 174.300 M185.528 200.393 C 185.817 200.611,187.728 203.300,188.887 205.121 C 191.246 208.825,193.137 215.456,194.002 223.060 C 194.454 227.033,195.603 232.021,196.319 233.121 C 197.788 235.376,196.068 235.041,193.556 232.584 C 185.493 224.696,182.248 216.231,182.216 203.000 C 182.196 194.877,182.425 194.203,184.042 197.622 C 184.708 199.033,185.377 200.279,185.528 200.393 M240.056 199.847 C 247.901 205.542,254.793 215.284,257.959 225.154 C 259.974 231.436,260.416 233.392,261.222 239.600 C 262.115 246.489,261.215 258.176,260.228 252.500 C 259.650 249.179,257.363 244.962,252.038 237.400 C 250.953 235.860,249.309 233.070,248.384 231.200 C 247.459 229.330,246.544 227.487,246.351 227.105 C 245.937 226.287,245.319 224.573,243.859 220.200 C 243.271 218.440,242.600 216.460,242.369 215.800 C 241.811 214.213,241.126 211.845,239.834 207.036 C 239.248 204.855,238.506 202.560,238.185 201.936 C 237.863 201.311,237.335 200.285,237.011 199.656 C 236.461 198.590,236.537 198.000,237.223 198.000 C 237.382 198.000,238.657 198.831,240.056 199.847 M151.600 203.643 C 151.600 204.546,151.299 206.931,150.932 208.943 C 150.320 212.291,149.770 213.863,148.154 216.879 C 147.539 218.029,143.668 221.600,143.038 221.600 C 142.832 221.600,142.379 221.838,142.031 222.128 C 141.160 222.856,137.909 224.047,137.629 223.741 C 137.503 223.603,137.625 223.410,137.900 223.312 C 138.175 223.214,138.400 222.939,138.400 222.702 C 138.400 222.465,139.005 221.715,139.744 221.035 C 140.962 219.916,143.269 216.965,145.401 213.800 C 145.846 213.140,146.992 210.980,147.948 209.000 C 148.904 207.020,149.937 204.922,150.243 204.338 C 150.549 203.754,150.800 202.989,150.800 202.638 C 150.800 202.287,150.980 202.000,151.200 202.000 C 151.420 202.000,151.600 202.739,151.600 203.643 M274.753 214.217 C 278.089 217.508,281.149 220.752,281.553 221.428 C 284.617 226.548,284.622 236.081,281.566 245.600 C 280.448 249.082,279.828 248.687,279.232 244.116 C 278.772 240.585,278.099 238.079,276.219 232.895 C 275.879 231.957,275.429 230.877,275.220 230.495 C 275.010 230.113,274.536 229.080,274.166 228.200 C 273.797 227.320,273.173 225.880,272.781 225.000 C 272.389 224.120,271.686 222.500,271.218 221.400 C 270.750 220.300,270.132 218.950,269.845 218.400 C 269.558 217.850,268.920 216.050,268.428 214.400 C 267.935 212.750,267.367 210.987,267.166 210.481 C 266.174 207.990,266.964 204.386,267.996 206.692 C 268.414 207.625,271.085 210.600,274.753 214.217 M280.742 209.942 C 284.855 213.165,289.301 215.200,292.231 215.200 C 294.069 215.200,294.131 215.582,292.483 216.744 C 290.606 218.066,285.414 218.280,284.099 217.089 C 283.680 216.710,283.209 216.400,283.052 216.400 C 281.667 216.400,278.758 212.610,278.217 210.100 C 277.852 208.407,278.715 208.353,280.742 209.942 M181.189 219.105 C 181.195 219.383,181.360 219.923,181.557 220.305 C 182.444 222.033,183.590 227.770,183.813 231.600 C 183.947 233.910,184.142 236.102,184.246 236.471 C 184.708 238.110,182.407 236.102,181.191 233.806 C 178.528 228.773,178.229 227.516,178.238 221.400 C 178.249 213.466,178.516 212.657,180.019 216.012 C 180.656 217.435,181.183 218.827,181.189 219.105 M166.000 219.654 C 166.000 222.810,169.748 228.028,176.721 234.578 C 180.772 238.383,183.017 243.378,184.011 250.800 C 185.090 258.858,183.838 263.945,181.979 259.050 C 180.959 256.363,175.939 249.466,173.928 247.989 C 173.128 247.402,169.123 241.380,168.216 239.400 C 167.812 238.520,167.304 237.447,167.086 237.017 C 165.646 234.173,164.313 218.205,165.581 218.988 C 165.811 219.131,166.000 219.430,166.000 219.654 M214.292 361.197 C 219.114 361.877,222.193 364.065,223.700 367.882 C 224.498 369.905,225.245 386.173,224.649 388.548 L 224.385 389.600 218.641 389.600 C 211.526 389.600,212.082 390.291,211.926 381.254 C 211.785 373.049,211.543 372.400,208.632 372.400 C 205.276 372.400,205.220 372.799,205.212 396.800 C 205.203 420.536,205.241 420.800,208.600 420.800 C 211.556 420.800,212.000 419.430,212.000 410.314 C 212.000 400.917,211.483 401.600,218.596 401.600 L 224.364 401.600 224.637 403.056 C 225.274 406.454,224.538 423.285,223.667 425.200 C 219.303 434.805,198.274 434.805,193.657 425.200 L 192.600 423.000 192.600 396.600 L 192.600 370.200 193.651 368.000 C 195.947 363.193,199.166 361.528,207.800 360.680 C 209.183 360.545,210.281 360.632,214.292 361.197 M252.100 361.015 C 258.448 362.125,261.691 364.859,263.224 370.391 C 264.403 374.643,264.418 418.340,263.243 422.450 C 261.232 429.483,256.896 432.179,247.600 432.179 C 237.985 432.179,233.563 429.231,231.844 421.672 C 230.862 417.355,230.886 375.877,231.873 371.311 C 233.716 362.784,241.005 359.074,252.100 361.015 M114.311 367.769 C 114.446 375.023,114.851 374.551,108.282 374.800 L 103.000 375.000 102.890 381.307 C 102.744 389.637,102.440 389.200,108.381 389.200 C 114.957 389.200,114.400 388.590,114.400 395.796 C 114.400 403.010,115.010 402.386,107.943 402.395 C 102.205 402.401,102.800 400.667,102.800 417.386 L 102.800 431.107 101.900 431.348 C 100.710 431.667,92.841 431.668,91.250 431.350 L 90.000 431.100 90.000 396.617 C 90.000 377.651,90.123 362.011,90.273 361.861 C 90.422 361.711,95.867 361.636,102.373 361.694 L 114.200 361.800 114.311 367.769 M146.575 362.500 C 146.679 362.995,146.836 364.120,146.923 365.000 C 147.174 367.554,147.990 373.877,148.600 378.000 C 149.157 381.767,149.639 385.499,150.614 393.600 C 150.892 395.910,151.317 399.240,151.559 401.000 C 151.801 402.760,152.276 406.360,152.614 409.000 C 152.951 411.640,153.409 415.060,153.630 416.600 C 153.851 418.140,154.287 421.560,154.598 424.200 C 154.909 426.840,155.282 429.402,155.426 429.893 C 155.848 431.323,154.196 431.674,147.733 431.528 C 140.957 431.375,141.608 431.911,141.214 426.163 C 140.821 420.443,140.784 420.400,136.204 420.400 C 132.362 420.400,132.001 420.655,131.997 423.380 C 131.986 430.771,131.316 431.600,125.350 431.600 C 119.243 431.600,118.821 431.415,119.254 428.932 C 119.565 427.148,120.041 423.392,121.195 413.600 C 121.442 411.510,121.904 408.360,122.222 406.600 C 122.540 404.840,122.808 402.590,122.818 401.600 C 122.827 400.610,123.003 398.990,123.210 398.000 C 123.416 397.010,123.767 394.400,123.991 392.200 C 124.215 390.000,124.673 386.310,125.009 384.000 C 126.116 376.398,126.397 374.245,126.797 370.311 C 127.154 366.791,127.728 363.426,128.198 362.100 C 128.332 361.720,130.537 361.600,137.380 361.600 L 146.385 361.600 146.575 362.500 M174.007 390.400 C 174.120 406.130,174.255 419.045,174.307 419.100 C 174.358 419.155,176.974 419.200,180.120 419.200 C 187.229 419.200,186.800 418.798,186.800 425.466 C 186.800 432.220,188.100 431.637,173.315 431.506 L 161.400 431.400 161.298 396.490 L 161.196 361.580 167.498 361.690 L 173.800 361.800 174.007 390.400 M284.565 363.900 C 284.947 365.165,285.516 367.034,285.830 368.054 C 286.143 369.073,286.400 370.168,286.400 370.486 C 286.400 370.805,286.769 372.311,287.219 373.833 C 288.366 377.706,289.050 380.185,289.804 383.200 C 290.613 386.433,291.850 390.829,292.620 393.200 C 292.941 394.190,293.206 395.450,293.208 396.000 C 293.210 396.550,293.387 397.270,293.600 397.600 C 294.119 398.403,294.090 399.383,294.149 379.200 L 294.200 361.800 300.000 361.800 L 305.800 361.800 305.902 396.450 L 306.004 431.099 304.752 431.350 C 300.350 432.230,293.200 431.442,293.200 430.077 C 293.200 429.669,292.834 428.089,292.386 426.567 C 291.939 425.045,291.334 422.990,291.043 422.000 C 290.752 421.010,290.235 419.210,289.894 418.000 C 289.554 416.790,288.905 414.540,288.452 413.000 C 287.663 410.317,287.116 408.420,285.743 403.600 C 285.398 402.390,284.874 400.680,284.580 399.800 C 284.285 398.920,283.924 397.525,283.777 396.700 C 283.506 395.174,282.819 394.625,282.776 395.900 C 282.764 396.285,282.773 404.362,282.799 413.849 C 282.840 429.479,282.783 431.121,282.189 431.349 C 281.146 431.749,272.956 431.639,271.826 431.210 L 270.800 430.820 270.800 396.477 C 270.800 377.588,270.920 362.013,271.067 361.867 C 271.213 361.720,274.154 361.600,277.602 361.600 L 283.870 361.600 284.565 363.900 M245.300 373.177 L 244.400 373.928 244.400 396.518 L 244.400 419.108 245.386 419.754 C 246.715 420.625,248.902 420.569,250.056 419.635 L 251.000 418.871 251.000 396.412 L 251.000 373.954 250.000 373.186 C 248.727 372.208,246.467 372.204,245.300 373.177 M136.253 380.436 C 136.114 381.131,136.001 382.353,136.002 383.150 C 136.004 383.947,135.744 386.490,135.425 388.800 C 134.771 393.532,133.980 401.756,133.703 406.700 L 133.518 410.000 136.559 410.000 L 139.600 410.000 139.600 408.345 C 139.600 407.435,139.420 405.140,139.199 403.245 C 138.979 401.350,138.609 397.460,138.376 394.600 C 137.264 380.918,136.789 377.754,136.253 380.436 " stroke="none" fill="#1c1c1c" fill-rule="evenodd"></path></g></svg>